<svg xmlns="http://www.w3.org/2000/svg" width="83" height="106" viewBox="0 0 83 106" fill="none">
  <g clip-path="url(#clip0_78_268)">
    <path d="M31.8303 42.6121C14.2651 42.6121 0 56.8161 0 74.3061C0 91.7961 14.2651 106 31.8303 106C49.3955 106 63.6605 91.7961 63.6605 74.3061C63.6605 56.8161 49.3955 42.6121 31.8303 42.6121ZM31.8303 102.961C15.9684 102.961 3.05173 90.1001 3.05173 74.3061C3.05173 58.5121 15.9684 45.6507 31.8303 45.6507C47.6922 45.6507 60.6088 58.5121 60.6088 74.3061C60.6088 90.1001 47.7277 102.961 31.8303 102.961Z" fill="white"/>
    <path d="M83 1.94338C83.0355 1.41338 82.8581 0.918715 82.5032 0.565382C81.687 -0.317952 80.0547 -0.105952 79.487 0.954048C75.832 7.66738 69.5866 8.40938 67.0671 8.40938C66.6768 8.40938 66.4284 8.37405 66.3929 8.37405H66.251H66.18C55.0731 8.48005 47.5857 11.4834 43.8953 17.2427C38.4305 25.864 43.5759 37.206 43.7888 37.6654L44.0017 38.0894L44.392 38.3367C49.6439 41.5167 54.5408 43.142 58.9055 43.142C78.7418 43.142 82.3613 11.6247 83 1.94338ZM46.4147 36.0047L46.1663 35.3334C45.0308 32.2947 42.8307 24.6274 46.5212 18.8327C49.6084 14.0274 56.1732 11.5187 66.0381 11.3774H66.109H66.18C66.3574 11.3774 66.6768 11.4127 67.0671 11.4127C68.4865 11.4127 72.248 11.1654 75.9384 8.97472L79.5579 6.81938L78.9192 10.9534C76.7546 24.2387 71.5737 40.1034 58.941 40.1034C55.3925 40.1034 51.3826 38.8314 47.018 36.3227L46.4147 36.0047Z" fill="white"/>
    <path d="M57.6635 20.3521C57.2377 20.5641 57.1312 20.6701 55.8893 22.6134C47.4793 35.7928 40.2757 42.4354 34.5271 42.2941H34.4917C33.7819 42.2941 32.9658 42.9301 32.9658 43.7781C32.9303 44.6261 33.6045 45.2974 34.4562 45.3328H34.74C43.9662 45.3328 52.6956 33.2841 58.4797 24.2388L58.5507 24.0268C58.8345 23.5674 59.0829 23.1788 59.2604 22.9668L59.4378 22.7548C59.8636 22.2954 59.9701 21.6594 59.6862 21.0941C59.3313 20.3168 58.4087 19.9988 57.6635 20.3521Z" fill="white"/>
    <path d="M31.8303 45.6507C32.6819 45.6154 33.3561 44.944 33.3561 44.1314C33.3561 43.7074 33.2142 43.354 32.9303 43.0361C32.6464 42.7534 32.2561 42.5767 31.8658 42.5767C26.2591 42.5061 21.1847 40.3861 17.6362 36.5701C14.478 33.2134 12.8457 28.7967 13.0941 24.486C13.3425 20.246 15.7909 18.55 17.991 18.3734C20.1201 18.232 22.5331 19.398 23.1009 21.9067C23.2428 22.5074 23.3138 23.0727 23.2783 23.532L23.2074 25.016L21.7525 25.3341C21.2202 25.4754 20.4395 25.4754 19.8363 25.4047C18.9846 25.228 18.2039 25.7934 18.062 26.6061C17.991 26.9947 18.062 27.4187 18.3104 27.7367C18.5588 28.0547 18.8782 28.302 19.304 28.3727C19.6588 28.4434 23.0299 28.9734 25.0171 26.8887C26.2591 25.5814 26.6139 23.6734 26.0462 21.2354C25.2655 17.7374 22.1073 15.3347 18.4169 15.3347C18.2039 15.3347 17.9555 15.3347 17.7426 15.37C14.1941 15.6527 10.4327 18.55 10.0778 24.3447C9.75845 29.468 11.7101 34.6974 15.4006 38.6547C19.5524 43.0714 25.372 45.5447 31.8303 45.6507Z" fill="white"/>
    <path d="M57.2022 91.2307C57.1313 90.418 56.3861 89.8173 55.5344 89.888C48.189 90.63 38.6079 90.4887 34.6691 85.6833C33.2852 83.9873 32.6819 81.6907 32.9658 79.2173L33.0722 78.3693L33.7465 77.8747C36.5143 75.8607 41.1629 71.126 41.1629 61.9393C41.1629 59.36 41.9436 57.3813 43.4694 56.074C46.7696 53.318 52.4827 54.166 52.7311 54.2013C53.5827 54.3427 54.3634 53.7773 54.5053 52.9647C54.5763 52.576 54.4699 52.152 54.2569 51.834C54.0085 51.516 53.6892 51.2687 53.2634 51.2333C52.5182 51.092 45.8469 50.1027 41.5177 53.742C39.9564 55.0493 38.1112 57.5227 38.1112 61.9393C38.1112 72.1153 31.4399 75.79 31.156 75.9667L30.5528 76.2847L30.3399 76.8853C30.3044 76.956 28.4237 82.8213 32.1851 87.556C35.982 92.2553 43.8953 94.128 55.7828 92.9267C56.1731 92.8913 56.5635 92.6793 56.8119 92.3613C57.1313 92.008 57.2377 91.6193 57.2022 91.2307Z" fill="white"/>
    <path d="M8.55194 95.0467C10.752 95.0467 12.065 94.1634 12.7392 93.4567C14.8328 91.2307 14.5844 87.556 14.336 83.634C14.0522 79.076 14.1231 77.5567 14.7619 76.638L15.1522 76.0374L15.8264 75.8254C24.4138 73.3167 26.2946 62.222 26.6849 58.9007C26.8978 56.9574 26.1171 55.9327 25.4074 55.438C23.3138 53.8834 19.5524 55.1554 16.5006 56.4274L14.9038 57.0987L14.0522 55.6147C13.4489 54.59 12.7392 53.1767 12.2424 51.94C11.923 51.1627 11.0359 50.8094 10.2552 51.1274C9.47456 51.4454 9.1197 52.3287 9.43907 53.106C12.4553 60.3847 14.478 60.5614 15.6845 60.0667C15.8619 59.996 16.1103 59.89 16.4297 59.7487C18.2749 58.936 19.8008 58.3707 20.9718 58.0527L23.9525 57.24L23.4203 60.2787C22.7106 64.2714 20.6524 71.2674 15.0103 72.8927C11.0004 74.0587 10.9649 78.334 11.3198 83.8107C11.6392 88.5454 11.4972 90.206 10.6811 91.1954L10.3972 91.584L9.93586 91.7607C9.6165 91.902 9.3681 91.9374 8.62291 92.008C7.59384 92.0434 6.91962 92.6794 6.91962 93.5274C6.91962 93.916 7.06156 94.3047 7.34544 94.5874C7.62932 94.87 8.01966 95.0467 8.41 95.0467L8.48097 96.99V95.0467H8.55194Z" fill="white"/>
    <path d="M41.1984 104.516C41.9081 104.057 42.0855 103.103 41.6242 102.431C37.8983 96.7427 33.6755 93.7747 29.0624 93.598C28.9205 93.598 28.7786 93.598 28.6366 93.598C21.717 93.598 16.7845 99.852 16.5716 100.135C16.3232 100.453 16.2168 100.841 16.2523 101.265C16.2877 101.689 16.5007 102.007 16.82 102.255C17.1394 102.502 17.5297 102.608 17.9556 102.573C18.3459 102.537 18.7007 102.325 18.9491 102.007C18.9846 101.972 23.1364 96.6367 28.5656 96.6367C28.7076 96.6367 28.814 96.6367 28.956 96.6367C32.54 96.778 35.9466 99.2867 39.1048 104.092C39.5306 104.763 40.5242 104.975 41.1984 104.516Z" fill="white"/>
  </g>
  <defs>
    <clipPath id="clip0_78_268">
      <rect width="83" height="106" fill="white"/>
    </clipPath>
  </defs>
</svg>