<!-- <svg width="175" height="250" viewBox="0 0 175 250" fill="none" xmlns="http://www.w3.org/2000/svg">
<rect width="175" height="250" fill="#EAE9E9"/>
<g id="inicio">
<rect width="1440" height="1332" transform="translate(2 -1036)" fill="#F5F5F5"/>
<g id="menu-fijo">
<g id="menu-fijo_2">
<rect id="fondo" x="1" y="-927" width="252" height="1223" fill="#EAE9E9"/>
<g id="Mask group">
<mask id="mask0_488_2" style="mask-type:alpha" maskUnits="userSpaceOnUse" x="1" y="-929" width="252" height="1190">
<rect id="fondo_2" x="1" y="-928.267" width="252" height="1189" fill="#E3E1E1"/>
</mask>
<g mask="url(#mask0_488_2)">
</g>
<g id="pattern" opacity="0.6">
<g id="Group">
<g id="Clip path group">
<mask id="mask1_488_2" style="mask-type:luminance" maskUnits="userSpaceOnUse" x="0" y="-929" width="253" height="1190">
<g id="SVGID_2_">
<path id="Vector" d="M252.3 -928.145H0.299988V260.857H252.3V-928.145Z" fill="white"/>
</g>
</mask>
<g mask="url(#mask1_488_2)">
<g id="Group_2">
<g id="Group_3">
<path id="Vector_2" d="M100.74 158.676C102.43 157.83 104.01 156.862 105.62 155.915C71.42 169.771 31.94 154.672 15.4 120.347C-1.97002 84.2997 12.57 40.7642 47.86 23.1176C70.4 11.8491 95.92 13.9071 115.97 26.2251L115.06 25.0839C90.84 4.5133 58.1 -7.3563 28.02 7.68198C-12.79 28.0896 -29.6 78.4311 -9.52002 120.123C10.56 161.814 59.93 179.084 100.74 158.676Z" fill="#DDDCDC"/>
<path id="Vector_3" d="M55.9 91.9005C54.21 92.7461 52.63 93.714 51.02 94.6615C85.22 80.8051 124.7 95.9045 141.24 130.23C158.61 166.277 144.07 209.812 108.78 227.459C86.24 238.727 60.72 236.669 40.67 224.351L41.58 225.492C65.8 246.063 98.54 257.933 128.62 242.894C169.43 222.487 186.24 172.145 166.16 130.454C146.08 88.742 96.71 71.4928 55.9 91.9005Z" fill="#DDDCDC"/>
</g>
<g id="Group_4">
<path id="Vector_4" d="M181.9 -100.663C180.21 -99.8172 178.63 -98.8493 177.02 -97.9018C211.22 -111.758 250.7 -96.6587 267.24 -62.3336C284.61 -26.2865 270.07 17.249 234.78 34.8955C212.24 46.164 186.72 44.106 166.67 31.7881L167.58 32.9292C191.8 53.4998 224.54 65.3694 254.62 50.3312C295.43 29.9235 312.24 -20.418 292.16 -62.1095C272.08 -103.821 222.71 -121.071 181.9 -100.663Z" fill="#DDDCDC"/>
</g>
</g>
</g>
</g>
</g>
</g>
</g>
</g>
</g>
</g>
</svg> -->


<svg xmlns="http://www.w3.org/2000/svg" width="110" height="129" viewBox="0 0 110 129" fill="none">
<path d="M67.8872 77.635C68.8463 77.1636 69.7404 76.6272 70.667 76.0908C51.2083 83.8282 28.7421 75.3918 19.3297 56.2271C9.4459 36.1033 17.7203 11.7857 37.7969 1.93508C50.6231 -4.35564 65.1399 -3.20154 76.5518 3.67436L76.0316 3.04041C62.2463 -8.45194 43.6166 -15.0677 26.515 -6.68012C3.30103 4.71469 -6.27392 32.8197 5.15424 56.1133C16.5824 79.4068 44.6732 89.0298 67.8872 77.635Z" fill="#D3D3D3" fill-opacity="0.8"/>
<path d="M42.3649 40.3458C41.4057 40.8172 40.5116 41.3536 39.585 41.89C59.0438 34.1526 81.51 42.589 90.9224 61.7538C100.806 81.8776 92.5317 106.195 72.4552 116.046C59.629 122.336 45.1122 121.182 33.7003 114.306L34.2205 114.94C48.0058 126.433 66.6355 133.049 83.7371 124.661C106.951 113.266 116.526 85.1611 105.098 61.8675C93.6859 38.5903 65.5951 28.951 42.3649 40.3458Z" fill="#D3D3D3" fill-opacity="0.8"/>
</svg>