<svg xmlns="http://www.w3.org/2000/svg" width="119" height="69" viewBox="0 0 119 69" fill="none">
  <g clip-path="url(#clip0_78_249)">
    <path d="M117.782 54.234C116.886 53.245 114.105 52.026 109.233 51.842C107.555 51.773 99.5574 51.842 97.6729 47.817C95.9262 44.114 105.027 39.307 107.21 38.019C107.785 37.674 110.841 35.374 107.877 33.35C105.762 31.901 101.557 32.223 99.2816 32.545C102.729 27.347 105.51 22.977 105.51 22.977C96.8455 22.563 85.2627 16.1 85.2627 16.1C85.2627 16.1 73.8867 9.29203 69.1754 1.97803C69.1754 1.97803 56.7192 25.898 55.7999 30.751C54.8807 35.604 53.7316 48.599 63.315 54.142C72.8984 59.685 83.585 52.187 87.3081 48.967C89.2385 47.288 94.0417 40.411 98.2474 34.132C98.6841 34.155 99.2586 34.132 100.04 34.04C104.797 33.488 106.268 34.707 106.038 35.512C105.694 36.685 104.177 37.375 102.522 38.732C100.867 40.066 96.225 42.205 94.8691 45.908C93.5131 49.634 96.0182 52.394 99.2816 53.383C101.879 54.165 111.347 54.395 114.082 56.189C116.817 57.983 115.622 61.019 115.185 62.307C114.725 63.687 113.232 67.137 112.979 68.448C112.726 69.736 113.737 68.333 113.737 68.333C120.77 57.753 119.207 55.798 117.782 54.234ZM77.7016 49.358C77.288 46.115 75.1966 41.722 71.6574 39.675C68.1182 37.628 63.269 38.019 60.2584 39.284C60.3963 38.663 66.9232 31.855 73.8637 35.857C80.8272 39.859 78.1613 48.921 77.7016 49.358ZM73.1283 24.081C71.7723 23.299 72.2779 18.124 72.5537 17.871C72.7835 19.78 74.0016 20.7 74.8749 21.206C75.7252 21.689 77.0352 22.241 78.7818 21.505C78.7128 21.85 74.4842 24.863 73.1283 24.081ZM84.4123 30.613C83.0564 29.831 83.562 24.656 83.8378 24.403C84.0676 26.289 85.2857 27.209 86.159 27.715C87.0093 28.198 88.3193 28.75 90.0659 28.014C89.9969 28.382 85.7683 31.395 84.4123 30.613Z" fill="white"/>
    <path d="M63.6597 29.992C62.7405 25.093 50.721 2.001 50.2154 1.035L49.6868 0L49.0433 0.989C44.5159 8.004 33.5535 14.674 33.1858 14.881C32.7951 15.088 21.557 21.252 13.2376 21.666L12.0655 21.735L12.686 22.724C13.2835 23.667 27.2565 45.609 31.0255 48.852C32.1976 49.864 34.6337 51.796 37.8052 53.429C41.3673 55.269 44.7916 56.189 48.0321 56.189C50.8129 56.189 53.4328 55.499 55.8229 54.119C58.1441 52.762 60.0286 50.899 61.4075 48.576C62.5796 46.621 63.384 44.298 63.8436 41.699C64.7169 36.662 64.0045 31.832 63.6597 29.992ZM43.114 19.044C44.4699 18.262 48.6986 21.298 48.7675 21.643C47.0209 20.907 45.7109 21.459 44.8606 21.942C43.9873 22.448 42.7692 23.368 42.5394 25.254C42.2866 25.001 41.781 19.826 43.114 19.044ZM33.5765 28.474C32.7032 28.98 31.4852 29.9 31.2553 31.786C30.9796 31.533 30.474 26.358 31.8299 25.576C33.1858 24.794 37.4145 27.83 37.4834 28.175C35.7368 27.439 34.4268 27.991 33.5765 28.474ZM49.8017 43.677C42.8612 47.679 36.3343 40.871 36.1964 40.25C39.2071 41.515 44.0562 41.906 47.5954 39.859C51.1346 37.812 53.226 33.419 53.6397 30.176C54.0993 30.613 56.7422 39.675 49.8017 43.677Z" fill="#019939"/>
    <path d="M62.9933 30.1301C62.074 25.2771 49.6178 1.35706 49.6178 1.35706C44.9065 8.67106 33.5305 15.4791 33.5305 15.4791C33.5305 15.4791 21.9477 21.9191 13.2605 22.3561C13.2605 22.3561 16.2942 27.1171 19.9253 32.5911C17.742 32.2691 13.2835 31.8781 11.1003 33.3731C8.1356 35.3971 11.1922 37.6971 11.7667 38.0421C13.927 39.3301 23.0278 44.1371 21.3042 47.8401C19.4197 51.8651 11.399 51.7961 9.74432 51.8651C4.87217 52.0491 2.09137 53.2681 1.19508 54.2571C-0.206815 55.8211 -1.79256 57.7761 5.23988 68.3561C5.23988 68.3561 6.25108 69.7591 5.99828 68.4711C5.74548 67.1831 4.27465 63.7101 3.79203 62.3301C3.35537 61.0191 2.16032 57.9831 4.89516 56.2121C7.63 54.4181 17.0985 54.2111 19.6955 53.4061C22.9589 52.4171 25.4639 49.6571 24.108 45.9311C22.752 42.2281 18.1097 40.0891 16.455 38.7551C14.8003 37.4211 13.2835 36.7081 12.9388 35.5351C12.709 34.7071 14.1798 33.5111 18.9371 34.0631C19.8563 34.1781 20.4998 34.1781 20.9365 34.1551C25.0273 40.2501 29.5777 46.7591 31.4392 48.3691C35.1852 51.5891 45.8488 59.0871 55.4322 53.5441C65.0616 47.9781 63.9125 34.9831 62.9933 30.1301ZM43.114 19.0441C44.4699 18.2621 48.6986 21.2981 48.7675 21.6431C47.0209 20.9071 45.7109 21.4591 44.8606 21.9421C43.9873 22.4481 42.7692 23.3681 42.5394 25.2541C42.2866 25.0011 41.781 19.8261 43.114 19.0441ZM33.5765 28.4741C32.7032 28.9801 31.4852 29.9001 31.2553 31.7861C30.9796 31.5331 30.474 26.3581 31.8299 25.5761C33.1858 24.7941 37.4145 27.8301 37.4834 28.1751C35.7368 27.4391 34.4268 27.9911 33.5765 28.4741ZM49.8017 43.6771C42.8612 47.6791 36.3343 40.8711 36.1964 40.2501C39.2071 41.5151 44.0562 41.9061 47.5954 39.8591C51.1346 37.8121 53.226 33.4191 53.6396 30.1761C54.0993 30.6131 56.7422 39.6751 49.8017 43.6771Z" fill="white"/>
  </g>
  <defs>
    <clipPath id="clip0_78_249">
      <rect width="119" height="69" fill="white"/>
    </clipPath>
  </defs>
</svg>