<svg xmlns="http://www.w3.org/2000/svg" width="136" height="136" viewBox="0 0 136 136" fill="none">
  <g clip-path="url(#clip0_47_389)">
    <path d="M68 136C105.555 136 136 105.555 136 68C136 30.4446 105.555 0 68 0C30.4446 0 0 30.4446 0 68C0 105.555 30.4446 136 68 136Z" fill="white"/>
    <path d="M99.9101 74.6503C99.9101 73.7522 99.1816 73.0251 98.285 73.0251C85.7156 73.0251 74.8242 80.3326 69.6252 90.919V87.3008C74.9198 81.7611 77.8336 74.5234 77.8336 66.8338C77.8336 59.1443 74.7501 51.4676 69.149 45.8679C68.5389 45.2577 67.4597 45.2577 66.8496 45.8679C55.4535 57.2654 55.301 75.7038 66.3734 87.2994V90.919C61.1743 80.3312 50.2829 73.0251 37.7136 73.0251C36.8155 73.0251 36.0885 73.7536 36.0885 74.6503C36.0885 91.7002 49.5302 105.671 66.3734 106.519V114.374C66.3734 115.272 67.1019 115.999 67.9986 115.999C68.8953 115.999 69.6237 115.271 69.6237 114.374V106.519C86.4669 105.669 99.9087 91.7002 99.9087 74.6503H99.9101ZM68 49.3905C72.2568 54.2132 74.5819 60.3446 74.5819 66.8338C74.5819 73.3231 72.2554 79.4545 68 84.2772C59.2384 74.3381 59.2384 59.3296 68 49.3905ZM39.3887 76.3239C53.8597 77.1621 65.4867 88.7892 66.325 103.26C51.8539 102.422 40.2269 90.7949 39.3887 76.3239ZM69.6736 103.26C70.5119 88.7892 82.1389 77.1621 96.6099 76.3239C95.7717 90.7949 84.1447 102.422 69.6736 103.26Z" fill="#60B200"/>
    <path d="M122.23 81.6399L119.07 72.9025L113.082 80.0076L116.142 80.5536C110.457 102.527 90.8677 117.753 68.0043 117.753C42.1971 117.753 20.9061 98.4075 18.4783 72.7557C18.3985 71.9004 17.6315 71.2703 16.7862 71.3558C15.9323 71.4371 15.305 72.194 15.3863 73.048C16.6194 86.0806 22.6396 98.1438 32.3392 107.014C42.1001 115.941 54.7664 120.858 68.0043 120.858C80.0404 120.858 91.8157 116.705 101.163 109.164C110.039 102.004 116.404 92.0751 119.207 81.0982L122.23 81.6371V81.6399Z" fill="#60B200"/>
    <path d="M103.665 28.9862C93.9056 20.0593 81.2408 15.1425 68.0029 15.1425C55.9667 15.1425 44.19 19.2952 34.8397 26.8365C25.9626 33.9957 19.596 43.9248 16.7933 54.9004L13.7697 54.3615L16.9302 63.0989L22.9176 55.9938L19.8569 55.4478C25.5435 33.4754 45.1338 18.2488 68.0014 18.2488C93.8044 18.2488 115.093 37.5939 117.522 63.2457C117.597 64.0497 118.274 64.6527 119.066 64.6527C119.115 64.6527 119.164 64.6513 119.214 64.6456C120.068 64.5643 120.695 63.8074 120.614 62.9534C119.381 49.9208 113.36 37.8576 103.664 28.9877L103.665 28.9862Z" fill="#60B200"/>
    <path d="M28.9449 55.5447L27.5536 55.0301L28.5828 52.2474L38.3352 55.8527L37.7664 57.3909L29.4054 54.3002L28.9449 55.5447Z" fill="#008549"/>
    <path d="M31.4354 48.7419C30.9407 47.7796 31.0519 46.7218 31.769 45.5671C32.486 44.4124 33.3842 43.8422 34.4662 43.8579C35.5468 43.8735 36.787 44.3155 38.1841 45.1836C39.5982 46.0618 40.5562 46.9827 41.058 47.9493C41.5613 48.9158 41.4529 49.9764 40.7359 51.1326C40.0188 52.2873 39.1164 52.8547 38.0273 52.8333C36.9381 52.8119 35.6865 52.3628 34.2723 51.4847C32.8752 50.6179 31.9286 49.7027 31.434 48.7419H31.4354ZM35.6038 45.6384C35.0991 45.4417 34.623 45.3847 34.1754 45.4645C33.7277 45.5457 33.3471 45.8394 33.0306 46.3483C32.7141 46.8573 32.62 47.3306 32.7469 47.7668C32.8724 48.203 33.1361 48.605 33.5353 48.97C33.9344 49.3349 34.4619 49.7213 35.1162 50.1275C35.7948 50.5495 36.3893 50.8617 36.8996 51.067C37.41 51.2723 37.889 51.3307 38.3338 51.2438C38.7785 51.1568 39.1606 50.8589 39.4756 50.3499C39.7921 49.841 39.8905 49.3677 39.7707 48.9286C39.651 48.4896 39.3858 48.0875 38.9753 47.7212C38.5647 47.3548 38.0201 46.9613 37.3416 46.5394C36.6872 46.1331 36.107 45.8323 35.6024 45.637L35.6038 45.6384Z" fill="#008549"/>
    <path d="M37.5397 40.0844C37.3045 39.028 37.6809 38.033 38.6659 37.0964C39.6524 36.1597 40.666 35.8376 41.7081 36.127C42.7502 36.4164 43.8365 37.1576 44.9698 38.3509C46.116 39.5583 46.8088 40.6917 47.0498 41.7551C47.2921 42.8172 46.9186 43.8165 45.9321 44.7531C44.9456 45.6897 43.9292 46.0091 42.8814 45.7125C41.8336 45.416 40.7359 44.6647 39.5911 43.4587C38.4592 42.2655 37.775 41.1407 37.5397 40.0858V40.0844ZM42.3568 38.137C41.9177 37.8191 41.4715 37.6438 41.0181 37.6081C40.5648 37.5739 40.1215 37.7607 39.6867 38.1741C39.2519 38.5875 39.0409 39.0209 39.0523 39.4742C39.0637 39.929 39.2162 40.3837 39.5113 40.8385C39.805 41.2932 40.217 41.8008 40.7473 42.3582C41.2976 42.9369 41.7937 43.3917 42.2356 43.7196C42.6775 44.0475 43.1251 44.2257 43.5785 44.2542C44.0318 44.2841 44.4752 44.0917 44.91 43.6782C45.3448 43.2648 45.56 42.8329 45.5543 42.3781C45.55 41.9248 45.3947 41.4686 45.091 41.0096C44.7874 40.5505 44.3597 40.0316 43.8094 39.4528C43.2791 38.894 42.7944 38.4564 42.3553 38.1384L42.3568 38.137Z" fill="#008549"/>
    <path d="M45.0896 33.0505C45.2692 32.5159 45.6413 32.1025 46.2087 31.8103C46.7746 31.5195 47.3292 31.4582 47.868 31.625C48.4069 31.7918 48.836 32.1838 49.1525 32.8011C49.469 33.4183 49.5388 33.9971 49.362 34.536C49.1838 35.0763 48.8132 35.4911 48.2458 35.7819C47.6784 36.0728 47.1239 36.1326 46.5836 35.9616C46.0404 35.7905 45.6128 35.397 45.2949 34.7783C44.9784 34.1611 44.9085 33.5851 45.0882 33.0491L45.0896 33.0505ZM46.4253 34.201C46.8074 34.9451 47.265 35.1803 47.7968 34.9066C48.0505 34.7769 48.2002 34.5845 48.2472 34.3307C48.2943 34.077 48.2187 33.759 48.0234 33.3798C47.6456 32.6442 47.1909 32.4119 46.6577 32.6856C46.1246 32.9593 46.0476 33.464 46.4253 34.1996V34.201ZM52.1063 28.9933L51.5745 40.4236L50.1532 41.1535L50.685 29.7232L52.1063 28.9948V28.9933ZM52.9174 35.5909C53.097 35.0549 53.4691 34.6429 54.0365 34.3507C54.5953 34.0641 55.1442 34.0042 55.683 34.171C56.2219 34.3378 56.651 34.7299 56.9675 35.3471C57.284 35.9644 57.3538 36.5432 57.177 37.0835C56.9988 37.6238 56.6311 38.0358 56.0736 38.3223C55.5063 38.6131 54.9517 38.673 54.41 38.5034C53.8669 38.3323 53.4392 37.9388 53.1213 37.3201C52.8034 36.7014 52.7349 36.1255 52.9146 35.5909H52.9174ZM54.2404 36.7471C54.6181 37.4827 55.0743 37.715 55.6061 37.4413C56.1392 37.1676 56.2162 36.6629 55.8384 35.9274C55.4607 35.1918 55.0059 34.9594 54.4727 35.2331C53.9396 35.5068 53.8626 36.0115 54.2389 36.7471H54.2404Z" fill="#008549"/>
    <path d="M67.387 26.6255C68.2053 26.979 68.8539 27.5193 69.3329 28.2464C69.8119 28.9734 70.0842 29.8402 70.1469 30.8466C70.2097 31.8517 70.05 32.7384 69.6637 33.5067C69.2773 34.2737 68.7014 34.8796 67.9344 35.3244C67.1675 35.7691 66.2565 36.0229 65.203 36.0885L61.9712 36.2923L61.3483 26.4003L64.5786 26.1964C65.6321 26.1308 66.5673 26.2734 67.3856 26.6269L67.387 26.6255ZM67.7234 33.6564C68.3008 32.9907 68.5531 32.0883 68.4819 30.9507C68.4106 29.8031 68.0456 28.9249 67.3884 28.3191C66.7298 27.7118 65.8232 27.4452 64.6656 27.5193L63.0575 27.6205L63.5137 34.8667L65.1218 34.7655C66.2793 34.6928 67.1475 34.3236 67.7249 33.6593L67.7234 33.6564Z" fill="#008549"/>
    <path d="M74.3709 26.5357L73.0665 36.3622L71.4556 36.1483L72.76 26.3218L74.3724 26.5357H74.3709Z" fill="#008549"/>
    <path d="M83.7284 32.1054C83.6529 31.5537 83.4433 31.0818 83.0983 30.6912C82.7533 30.3006 82.2986 30.0041 81.734 29.8031C81.1153 29.5821 80.5152 29.5251 79.9335 29.6292C79.3505 29.7332 78.8316 29.9927 78.3768 30.4061C77.9206 30.8181 77.5728 31.3612 77.3333 32.0327C77.0923 32.7041 77.0168 33.3456 77.1066 33.9586C77.1964 34.5702 77.4331 35.102 77.8165 35.5524C78.2014 36.0029 78.7018 36.3379 79.3191 36.5589C80.1516 36.8568 80.9115 36.8654 81.5972 36.586C82.2829 36.3066 82.826 35.7891 83.228 35.0335L79.7225 33.7804L80.1588 32.5587L85.3022 34.3977L84.876 35.5923C84.5182 36.2823 84.0221 36.8583 83.3891 37.3173C82.7547 37.7778 82.0391 38.07 81.2422 38.194C80.4453 38.3181 79.6399 38.2339 78.8244 37.9431C77.9463 37.6295 77.2178 37.1391 76.639 36.4719C76.0602 35.8048 75.6867 35.0335 75.5199 34.1568C75.3531 33.2786 75.433 32.3848 75.7609 31.471C76.0873 30.5572 76.5934 29.8145 77.2777 29.2414C77.962 28.6683 78.7417 28.3077 79.617 28.1608C80.4923 28.014 81.3648 28.0967 82.233 28.406C83.228 28.761 84.0235 29.3212 84.6251 30.0868C85.2253 30.8509 85.5389 31.7447 85.5688 32.764L83.7284 32.1068V32.1054Z" fill="#008549"/>
    <path d="M90.7108 32.7298L85.5004 41.1621L84.1176 40.3067L89.328 31.8745L90.7108 32.7298Z" fill="#008549"/>
    <path d="M98.2978 38.7999L97.4211 39.7964L95.441 38.0529L89.7672 44.4965L88.5469 43.4216L94.2207 36.978L92.2306 35.2245L93.1073 34.2295L98.2992 38.8013L98.2978 38.7999Z" fill="#008549"/>
    <path d="M97.3455 50.5952L95.0118 47.1638L92.9362 47.7126L91.9825 46.3099L102.188 43.664L103.247 45.2207L97.0362 53.74L96.0739 52.3244L97.3484 50.5952H97.3455ZM98.1866 49.4718L101.09 45.5486L96.3661 46.7946L98.1866 49.4718Z" fill="#008549"/>
    <path d="M98.9678 55.6217L100.168 58.7509L98.9436 59.2213L97.1602 54.5739L106.415 51.0228L106.998 52.5411L98.9678 55.6217Z" fill="#008549"/>
  </g>
  <defs>
    <clipPath id="clip0_47_389">
      <rect width="136" height="136" fill="white"/>
    </clipPath>
  </defs>
</svg>