<svg width="200" height="169" viewBox="0 0 200 169" fill="none" xmlns="http://www.w3.org/2000/svg" opacity="0.27">
<path d="M214.086 -88.4269C213.127 -87.9555 212.233 -87.4191 211.307 -86.8827C230.765 -94.6201 253.232 -86.1837 262.644 -67.0189C272.528 -46.8951 264.253 -22.5775 244.177 -12.7269C231.351 -6.43623 216.834 -7.59032 205.422 -14.4662L205.942 -13.8323C219.727 -2.33994 238.357 4.27588 255.459 -4.11175C278.673 -15.5066 288.248 -43.6116 276.819 -66.9052C265.391 -90.1987 237.3 -99.8217 214.086 -88.4269Z" fill="#D3D3D3" fill-opacity="0.8"/>
<path d="M554.168 -88.4269C553.208 -87.9555 552.314 -87.4191 551.388 -86.8827C570.846 -94.6201 593.313 -86.1837 602.725 -67.0189C612.609 -46.8951 604.334 -22.5775 584.258 -12.7269C571.432 -6.43623 556.915 -7.59032 545.503 -14.4662L546.023 -13.8323C559.808 -2.33994 578.438 4.27588 595.54 -4.11175C618.754 -15.5066 628.329 -43.6116 616.9 -66.9052C605.472 -90.1987 577.381 -99.8217 554.168 -88.4269Z" fill="#D3D3D3" fill-opacity="0.8"/>
<path d="M64.5611 77.635C65.5202 77.1636 66.4143 76.6272 67.3409 76.0908C47.8822 83.8282 25.416 75.3918 16.0036 56.2271C6.11979 36.1033 14.3942 11.7857 34.4707 1.93508C47.2969 -4.35564 61.8138 -3.20154 73.2257 3.67436L72.7055 3.04041C58.9202 -8.45194 40.2905 -15.0677 23.1889 -6.68012C-0.0250833 4.71469 -9.60003 32.8197 1.82813 56.1133C13.2563 79.4068 41.3471 89.0298 64.5611 77.635Z" fill="#D3D3D3" fill-opacity="0.8"/>
<path d="M39.0386 40.3459C38.0795 40.8173 37.1854 41.3538 36.2588 41.8902C55.7176 34.1527 78.1837 42.5891 87.5961 61.7539C97.4799 81.8777 89.2055 106.195 69.129 116.046C56.3028 122.337 41.7859 121.182 30.374 114.307L30.8942 114.941C44.6795 126.433 63.3092 133.049 80.4108 124.661C103.625 113.266 113.2 85.1612 101.772 61.8677C90.3597 38.5904 62.2688 28.9511 39.0386 40.3459Z" fill="#D3D3D3" fill-opacity="0.8"/>
<path d="M239.609 147.646C240.568 147.174 241.462 146.638 242.389 146.102C222.93 153.839 200.464 145.403 191.051 126.238C181.167 106.114 189.442 81.7964 209.518 71.9458C222.345 65.6551 236.861 66.8092 248.273 73.6851L247.753 73.0512C233.968 61.5588 215.338 54.943 198.236 63.3306C175.023 74.7254 165.448 102.83 176.876 126.124C188.304 149.418 216.379 159.041 239.609 147.646Z" fill="#D3D3D3" fill-opacity="0.8"/>
<path d="M214.086 110.357C213.127 110.828 212.233 111.364 211.307 111.901C230.765 104.163 253.232 112.6 262.644 131.765C272.528 151.888 264.253 176.206 244.177 186.057C231.351 192.347 216.834 191.193 205.422 184.317L205.942 184.951C219.727 196.444 238.357 203.059 255.459 194.672C278.673 183.277 288.248 155.172 276.819 131.878C265.391 108.601 237.3 98.9618 214.086 110.357Z" fill="#D3D3D3" fill-opacity="0.8"/>
<path d="M400.887 77.635C401.846 77.1636 402.741 76.6272 403.667 76.0908C384.208 83.8282 361.742 75.3918 352.33 56.2271C342.446 36.1033 350.72 11.7857 370.797 1.93508C383.623 -4.35564 398.14 -3.20154 409.552 3.67436L409.032 3.04041C395.246 -8.45194 376.617 -15.0677 359.515 -6.68012C336.301 4.71469 326.726 32.8197 338.154 56.1133C349.582 79.4068 377.673 89.0298 400.887 77.635Z" fill="#D3D3D3" fill-opacity="0.8"/>
<path d="M375.365 40.3459C374.406 40.8173 373.512 41.3538 372.585 41.8902C392.044 34.1527 414.51 42.5891 423.923 61.7539C433.806 81.8777 425.532 106.195 405.455 116.046C392.629 122.337 378.112 121.182 366.7 114.307L367.221 114.941C381.006 126.433 399.636 133.049 416.737 124.661C439.951 113.266 449.526 85.1612 438.098 61.8677C426.686 38.5904 398.595 28.9511 375.365 40.3459Z" fill="#D3D3D3" fill-opacity="0.8"/>
<path d="M579.674 147.646C580.633 147.174 581.527 146.638 582.454 146.102C562.995 153.839 540.529 145.403 531.116 126.238C521.232 106.114 529.507 81.7964 549.583 71.9458C562.41 65.6551 576.926 66.8092 588.338 73.6851L587.818 73.0512C574.033 61.5588 555.403 54.943 538.301 63.3306C515.087 74.7254 505.513 102.83 516.941 126.124C528.369 149.418 556.46 159.041 579.674 147.646Z" fill="#D3D3D3" fill-opacity="0.8"/>
<path d="M554.168 110.357C553.208 110.828 552.314 111.364 551.388 111.901C570.846 104.163 593.313 112.6 602.725 131.765C612.609 151.888 604.334 176.206 584.258 186.057C571.432 192.347 556.915 191.193 545.503 184.317L546.023 184.951C559.808 196.444 578.438 203.059 595.54 194.672C618.754 183.277 628.329 155.172 616.9 131.878C605.472 108.601 577.381 98.9618 554.168 110.357Z" fill="#D3D3D3" fill-opacity="0.8"/>
<path d="M734.32 63.623C735.279 63.1516 736.173 62.6152 737.1 62.0788C717.641 69.8162 695.175 61.3798 685.762 42.2151C675.879 22.0913 684.153 -2.22633 704.229 -12.0769C717.056 -18.3676 731.573 -17.2135 742.984 -10.3376L742.464 -10.9716C728.679 -22.4639 710.049 -29.0797 692.948 -20.6921C669.717 -9.29727 660.159 18.8078 671.587 42.1013C683.015 65.3786 711.106 75.0179 734.32 63.623Z" fill="#D3D3D3" fill-opacity="0.8"/>
<path d="M708.797 26.3339C707.838 26.8053 706.944 27.3417 706.018 27.8781C725.476 20.1407 747.943 28.5771 757.355 47.7418C767.239 67.8656 758.964 92.1832 738.888 102.034C726.062 108.325 711.545 107.17 700.133 100.295L700.653 100.928C714.438 112.421 733.068 119.037 750.17 110.649C773.384 99.2542 782.959 71.1491 771.53 47.8556C760.102 24.5621 732.028 14.939 708.797 26.3339Z" fill="#D3D3D3" fill-opacity="0.8"/>
<path d="M909.367 133.634C910.326 133.162 911.22 132.626 912.147 132.09C892.688 139.827 870.222 131.391 860.81 112.226C850.926 92.102 859.2 67.7844 879.277 57.9339C892.103 51.6431 906.62 52.7972 918.032 59.6731L917.512 59.0392C903.726 47.5468 885.097 40.931 867.995 49.3187C844.781 60.7135 835.206 88.8185 846.634 112.112C858.046 135.389 886.137 145.029 909.367 133.634Z" fill="#D3D3D3" fill-opacity="0.8"/>
<path d="M883.845 96.3446C882.886 96.816 881.992 97.3524 881.065 97.8888C900.524 90.1514 922.99 98.5878 932.402 117.753C942.286 137.876 934.012 162.194 913.935 172.045C901.109 178.335 886.592 177.181 875.18 170.305L875.701 170.939C889.486 182.432 908.116 189.047 925.217 180.66C948.431 169.265 958.006 141.16 946.578 117.866C935.15 94.5728 907.059 84.9498 883.845 96.3446Z" fill="#D3D3D3" fill-opacity="0.8"/>
<path d="M1070.65 63.623C1071.6 63.1516 1072.5 62.6152 1073.43 62.0788C1053.97 69.8162 1031.5 61.3798 1022.09 42.2151C1012.2 22.0913 1020.48 -2.22633 1040.56 -12.0769C1053.38 -18.3676 1067.9 -17.2135 1079.31 -10.3376L1078.79 -10.9716C1065 -22.4639 1046.38 -29.0797 1029.27 -20.6921C1006.06 -9.29727 996.485 18.8078 1007.91 42.1013C1019.34 65.3786 1047.43 75.0179 1070.65 63.623Z" fill="#D3D3D3" fill-opacity="0.8"/>
<path d="M1045.12 26.3339C1044.16 26.8053 1043.27 27.3417 1042.34 27.8781C1061.8 20.1407 1084.27 28.5771 1093.68 47.7418C1103.56 67.8656 1095.29 92.1832 1075.21 102.034C1062.39 108.325 1047.87 107.17 1036.46 100.295L1036.98 100.928C1050.76 112.421 1069.39 119.037 1086.5 110.649C1109.73 99.2542 1119.28 71.1491 1107.86 47.8556C1096.43 24.5621 1068.35 14.939 1045.12 26.3339Z" fill="#D3D3D3" fill-opacity="0.8"/>
<path d="M1249.43 133.634C1250.39 133.162 1251.29 132.626 1252.21 132.09C1232.75 139.827 1210.29 131.391 1200.88 112.226C1190.99 92.102 1199.27 67.7844 1219.34 57.9339C1232.17 51.6431 1246.69 52.7972 1258.1 59.6731L1257.58 59.0392C1243.79 47.5468 1225.16 40.931 1208.06 49.3187C1184.83 60.7135 1175.27 88.8185 1186.7 112.112C1198.13 135.389 1226.22 145.029 1249.43 133.634Z" fill="#D3D3D3" fill-opacity="0.8"/>
<path d="M1223.93 96.3446C1222.97 96.816 1222.07 97.3524 1221.15 97.8888C1240.61 90.1514 1263.07 98.5878 1272.48 117.753C1282.37 137.876 1274.09 162.194 1254.02 172.045C1241.19 178.335 1226.67 177.181 1215.26 170.305L1215.78 170.939C1229.57 182.432 1248.2 189.047 1265.3 180.66C1288.51 169.265 1298.09 141.16 1286.66 117.866C1275.23 94.5728 1247.14 84.9498 1223.93 96.3446Z" fill="#D3D3D3" fill-opacity="0.8"/>
</svg>
