<?xml version="1.0"?>
<svg xmlns:rdf="http://www.w3.org/1999/02/22-rdf-syntax-ns#" xmlns="http://www.w3.org/2000/svg" xmlns:cc="http://creativecommons.org/ns#" xmlns:xlink="http://www.w3.org/1999/xlink" xmlns:dc="http://purl.org/dc/elements/1.1/" xmlns:svg="http://www.w3.org/2000/svg" id="svg2" viewBox="0 0 610 610" version="1.1">
  <g id="layer4" transform="translate(5 -397.36)">
    <rect id="rect5840" stroke-linejoin="round" ry="1.5381" height="600" width="600" stroke="#4a0" y="402.36" x="0" stroke-width="10" fill="none"/>
    <g id="g3836" transform="matrix(.694 0 0 .694 79.177 292.15)">
      <path id="path5587" d="m60.144 576.7c59.306 102.72 192.98 136.53 298.62 75.54s143.19-193.66 83.88-296.37c-59.3-102.72-192.97-136.54-298.61-75.55-12.308 7.1062-23.595 15.154-33.995 24.051l-22.861-26.83-21.954 56.92-21.193 57.1 60.358-11.04 60.33-11.45-26.33-31.35c8.3732-7.1986 17.595-13.739 27.535-19.479 84.099-48.555 190.51-21.635 237.72 60.139 47.212 81.774 17.319 187.39-66.781 235.94-84.1 48.555-190.51 21.635-237.72-60.139-27.706-47.97-28.919-104.17-8.17-152.22l-50.081 9.32c-15.801 54.08-10.725 113.51 19.245 165.42z" stroke="#399411" stroke-width="6" fill="#399411"/>
      <path id="path3790" d="m468.47 323.62c2.7417 4.1506 5.3871 8.3866 7.9062 12.75 69.768 120.84 25.592 276.93-98.688 348.69-91.57 52.868-201.03 45.169-280.22-10.875 30.04 44.497 23.711 51.168 52.625 90.031 10.651 14.316 10.315 31.928 12.844 85.938 1.9611 41.888-5.5508 61.908-7.4688 103.22h275.09c0.34033-15.532 4.432-25.9 7.6562-41.781 0 0-39.646-10.351-52.281-18.531-13.811-8.941-26.809-23.754-45.219-48.219 22.515 27.168 40.352 39.999 42.312 41.625 3.3298 2.7609 27.303 13.255 43.469 17 31.314 7.2553 79.807 4.3641 101.09-6 4.2075-2.0485 10.738-3.7188 14.5-3.7188 14.31 0 24.25-13.62 24.25-33.25 0-9.3274-1.0772-13.226-5.4062-19.375-2.979-4.2312-6.3024-8.218-7.375-8.875-3.5932-2.2009 0.54126-14.767 6.1562-18.719 7.8581-5.5311 12.812-10.453 12.812-12.719 0-1.0878-0.25712-5.8536-2.625-8.125-3.7816-3.6275-5.8323-6.3774-16.594-5.7812-8.1348 0.45066-11.987 3.0791-17.125 3.1875 5.8424-1.3963 7.6252-3.1508 17.875-5.8125 11.714-3.0419 13.21-0.17472 17.25-0.3125 3.8142-0.13009 6.7392-3.9189 9-5.7188 2.1698-1.7274 3.0354-4.9182 2.5312-7.5938-0.50414-2.6755-2.2567-5.7569-5.1562-9.0625-6.0406-6.8863-6.3164-8.8207-1.8125-12.406 3.9007-3.1054 16.785-7.6446 21.812-7.6875 1.9214-0.0164 6.0196-2.1252 9.125-4.6875 5.5391-4.5704 5.5978-4.7881 2.375-11.375-1.8068-3.6928-8.0097-16.31-13.781-28.031-5.7716-11.721-10.5-21.697-10.5-22.188 0-1.2868-10.132-22.216-23.469-48.438-6.3599-12.505-11.594-24.338-11.594-26.281-5.6045-11.512-3.6225-21.385-4.875-32.969-3.2211-19.677 10.363-28.749 7.9375-47.281-12.38-94.7-14.83-114.61-55.7-166.26-7.76-9.81-17.24-20.34-28.72-30.38zm53.03 282.85s1.973 3.8516 3.2188 7.1562c2.3078 6.1222 2.0366 7.9739-2.625 17.75-2.9237 6.1314-9.924 12.704-14.25 16.125-4.2348 3.3485-8.0148 5.5425-10.875 5.5-6.6663-1.3958-10.407-4.022-17.438-8.5-1.8444-1.1748-3.821-3.1918-4.6562-3.3125-21.777 6.413-3.6347-2.6147 4.7812-9.625 16.945-14.112 28.072-22.267 34.031-23.812 3.9285-1.0187 7.8125-1.2812 7.8125-1.2812zm-7.375 5.1875c-4.2208 0.0946-7.3078 2.0735-14.75 7.1562-8.593 5.8687-11.439 10.88-21.688 20.188 4.8105-3.4568 13.196-8.7157 19.094-12.469 8.8175-5.6114 10.825-5.8319 18.719-7.5938 3.4175-0.7627 3.536 0.16524 7.5312 0.0625-1.1154-3.1891-3.6015-5.5365-5.75-7.125-1.162-0.16317-2.1822-0.24056-3.1562-0.21875z" fill="#204c04"/>
    </g>
  </g>
  <metadata>
    <rdf:RDF>
      <cc:Work>
        <dc:format>image/svg+xml</dc:format>
        <dc:type rdf:resource="http://purl.org/dc/dcmitype/StillImage"/>
        <cc:license rdf:resource="http://creativecommons.org/licenses/publicdomain/"/>
        <dc:publisher>
          <cc:Agent rdf:about="http://openclipart.org/">
            <dc:title>Openclipart</dc:title>
          </cc:Agent>
        </dc:publisher>
        <dc:title>eco think green icon</dc:title>
        <dc:date>2013-08-27T20:33:38</dc:date>
        <dc:description/>
        <dc:source>http://openclipart.org/detail/182300/eco-think-green-icon-by-dominiquechappard-182300</dc:source>
        <dc:creator>
          <cc:Agent>
            <dc:title>dominiquechappard</dc:title>
          </cc:Agent>
        </dc:creator>
        <dc:subject>
          <rdf:Bag>
            <rdf:li>ecology</rdf:li>
            <rdf:li>green</rdf:li>
            <rdf:li>mind</rdf:li>
            <rdf:li>recycling</rdf:li>
            <rdf:li>think</rdf:li>
          </rdf:Bag>
        </dc:subject>
      </cc:Work>
      <cc:License rdf:about="http://creativecommons.org/licenses/publicdomain/">
        <cc:permits rdf:resource="http://creativecommons.org/ns#Reproduction"/>
        <cc:permits rdf:resource="http://creativecommons.org/ns#Distribution"/>
        <cc:permits rdf:resource="http://creativecommons.org/ns#DerivativeWorks"/>
      </cc:License>
    </rdf:RDF>
  </metadata>
</svg>
