<svg width="1272" height="266" viewBox="0 0 1272 266" fill="none" xmlns="http://www.w3.org/2000/svg">
<g opacity="0.30" clip-path="url(#clip0_136_163)">
<path d="M64.3532 131.127C66.2166 130.211 67.9537 129.168 69.754 128.125C31.9484 143.169 -11.7001 126.766 -29.987 89.5036C-49.1898 50.3768 -33.1138 3.09602 5.89196 -16.0565C30.8114 -28.2876 59.0156 -26.0436 81.1872 -12.6748L80.1765 -13.9074C53.3937 -36.252 17.1989 -49.1151 -16.027 -32.8071C-61.1284 -10.6521 -79.7311 43.9926 -57.5278 89.2823C-35.3246 134.572 19.2203 153.282 64.3532 131.127Z" fill="#D3D3D3"/>
<path d="M14.767 58.6258C12.9036 59.5423 11.1665 60.5853 9.36622 61.6282C47.1718 46.5843 90.8203 62.9872 109.107 100.249C128.31 139.376 112.234 186.657 73.2282 205.809C48.3088 218.041 20.1047 215.797 -2.06702 202.428L-1.05637 203.66C25.7265 226.005 61.9213 238.868 95.1472 222.56C140.249 200.405 158.851 145.76 136.648 100.471C114.445 55.2125 59.8683 36.4708 14.767 58.6258Z" fill="#D3D3D3"/>
<path d="M377.694 -4.9948C379.557 -5.91135 381.294 -6.95435 383.095 -7.9973C345.289 7.0466 301.641 -9.35631 283.354 -46.6184C264.151 -85.7452 280.227 -133.026 319.233 -152.178C344.152 -164.41 372.356 -162.166 394.528 -148.797L393.517 -150.029C366.734 -172.374 330.54 -185.237 297.314 -168.929C252.212 -146.774 233.61 -92.1293 255.813 -46.8396C278.016 -1.5499 332.593 17.1602 377.694 -4.9948Z" fill="#D3D3D3"/>
<path d="M328.108 -77.4962C326.244 -76.5797 324.507 -75.5367 322.707 -74.4937C360.512 -89.5376 404.161 -73.1347 422.448 -35.8727C441.651 3.25411 425.575 50.5349 386.569 69.6874C361.649 81.9185 333.445 79.6746 311.274 66.3057L312.284 67.5383C339.067 89.8829 375.262 102.746 408.488 86.438C453.589 64.283 472.192 9.63826 449.989 -35.6514C427.817 -80.9095 373.241 -99.6512 328.108 -77.4962Z" fill="#D3D3D3"/>
<path d="M725.05 131.127C726.913 130.211 728.651 129.168 730.451 128.125C692.645 143.169 648.997 126.766 630.71 89.5036C611.507 50.3768 627.583 3.09602 666.589 -16.0565C691.508 -28.2876 719.712 -26.0436 741.884 -12.6748L740.873 -13.9074C714.09 -36.252 677.896 -49.1151 644.67 -32.8071C599.568 -10.6521 580.966 43.9926 603.169 89.2823C625.372 134.572 679.949 153.282 725.05 131.127Z" fill="#D3D3D3"/>
<path d="M675.495 58.6258C673.632 59.5423 671.895 60.5853 670.095 61.6282C707.9 46.5843 751.549 62.9872 769.836 100.249C789.038 139.376 772.962 186.657 733.957 205.809C709.037 218.041 680.833 215.797 658.661 202.428L659.672 203.66C686.455 226.005 722.65 238.868 755.876 222.56C800.977 200.405 819.58 145.76 797.376 100.471C775.173 55.2125 720.597 36.4708 675.495 58.6258Z" fill="#D3D3D3"/>
<path d="M377.694 391.235C379.557 390.318 381.294 389.275 383.095 388.232C345.289 403.276 301.641 386.873 283.354 349.611C264.151 310.485 280.227 263.204 319.233 244.051C344.152 231.82 372.356 234.064 394.528 247.433L393.517 246.2C366.734 223.856 330.54 210.993 297.314 227.301C252.212 249.456 233.61 304.1 255.813 349.39C278.016 394.648 332.593 413.39 377.694 391.235Z" fill="#D3D3D3"/>
<path d="M975.918 -104.74C974.055 -103.823 972.318 -102.78 970.518 -101.737C1008.32 -116.781 1051.97 -100.378 1070.26 -63.116C1089.46 -23.9892 1073.39 23.2916 1034.38 42.4441C1009.46 54.6752 981.256 52.4312 959.084 39.0624L960.095 40.295C986.878 62.6396 1023.07 75.5028 1056.3 59.1947C1101.4 37.0397 1120 -17.6051 1097.8 -62.8948C1075.63 -108.153 1021.05 -126.895 975.918 -104.74Z" fill="#D3D3D3"/>
<path d="M1365.6 103.884C1367.46 102.967 1369.2 101.924 1371 100.881C1333.19 115.925 1289.54 99.5224 1271.26 62.2603C1252.05 23.1336 1268.13 -24.1473 1307.14 -43.2998C1332.05 -55.5309 1360.26 -53.2869 1382.43 -39.918L1381.42 -41.1506C1354.64 -63.4952 1318.44 -76.3584 1285.22 -60.0504C1240.11 -37.8954 1221.51 16.7494 1243.72 62.0391C1265.92 107.329 1320.46 126.039 1365.6 103.884Z" fill="#D3D3D3"/>
<path d="M1025.5 373.694C1027.37 372.778 1029.11 371.735 1030.91 370.692C993.1 385.736 949.451 369.333 931.165 332.071C911.962 292.944 928.038 245.663 967.043 226.511C991.963 214.28 1020.17 216.524 1042.34 229.892L1041.33 228.66C1014.55 206.315 978.35 193.452 945.124 209.76C899.992 231.915 881.42 286.56 903.624 331.849C925.827 377.139 980.403 395.849 1025.5 373.694Z" fill="#D3D3D3"/>
<path d="M1234.25 256.278C1236.12 255.361 1237.85 254.318 1239.65 253.275C1201.85 268.319 1158.2 251.916 1139.91 214.654C1120.71 175.527 1136.79 128.247 1175.79 109.094C1200.71 96.863 1228.92 99.1069 1251.09 112.476L1250.08 111.243C1223.29 88.8985 1187.1 76.0354 1153.87 92.3435C1108.77 114.498 1090.17 169.143 1112.37 214.433C1134.58 259.723 1189.15 278.433 1234.25 256.278Z" fill="#D3D3D3"/>
<path d="M1184.67 183.776C1182.8 184.693 1181.07 185.736 1179.27 186.779C1217.07 171.735 1260.72 188.138 1279.01 225.4C1298.21 264.526 1282.13 311.807 1243.13 330.96C1218.21 343.191 1190 340.947 1167.83 327.578L1168.84 328.811C1195.63 351.155 1231.82 364.018 1265.05 347.71C1310.18 325.555 1328.75 270.911 1306.55 225.621C1284.34 180.331 1229.8 161.621 1184.67 183.776Z" fill="#D3D3D3"/>
</g>
<defs>
<clipPath id="clip0_136_163">
<rect width="2515" height="1080" fill="white" transform="translate(-407 -590)"/>
</clipPath>
</defs>
</svg>
