

<svg xmlns="http://www.w3.org/2000/svg" width="110" height="129" viewBox="0 0 110 129" fill="none">
  <path d="M67.8872 77.635C68.8463 77.1636 69.7404 76.6272 70.667 76.0908C51.2083 83.8282 28.7421 75.3918 19.3297 56.2271C9.4459 36.1033 17.7203 11.7857 37.7969 1.93508C50.6231 -4.35564 65.1399 -3.20154 76.5518 3.67436L76.0316 3.04041C62.2463 -8.45194 43.6166 -15.0677 26.515 -6.68012C3.30103 4.71469 -6.27392 32.8197 5.15424 56.1133C16.5824 79.4068 44.6732 89.0298 67.8872 77.635Z" fill="#D3D3D3" fill-opacity="0.3"/>
  <path d="M42.3649 40.3458C41.4057 40.8172 40.5116 41.3536 39.585 41.89C59.0438 34.1526 81.51 42.589 90.9224 61.7538C100.806 81.8776 92.5317 106.195 72.4552 116.046C59.629 122.336 45.1122 121.182 33.7003 114.306L34.2205 114.94C48.0058 126.433 66.6355 133.049 83.7371 124.661C106.951 113.266 116.526 85.1611 105.098 61.8675C93.6859 38.5903 65.5951 28.951 42.3649 40.3458Z" fill="#D3D3D3" fill-opacity="0.3"/>
</svg>