<svg width="332" height="529" viewBox="0 0 332 529" fill="none" xmlns="http://www.w3.org/2000/svg">
<g clip-path="url(#clip0_15_148)" filter="url(#filter0_b_15_148)">
<path d="M183.138 351.807C187.342 351.807 191.4 351.465 195.507 351.172C113.862 344.824 49.5244 276.61 49.5244 193.209C49.5244 105.609 120.413 34.6108 207.876 34.6108C263.707 34.6108 312.742 63.6643 340.902 107.367L340.169 104.242C311.667 40.275 257.693 -15 183.138 -15C81.9867 -15 0 67.1312 0 168.404C0 269.676 81.9867 351.807 183.138 351.807Z" fill="white" fill-opacity="0.08"/>
<path d="M157.813 177.144C153.609 177.144 149.551 177.486 145.444 177.779C227.089 184.127 291.427 252.341 291.427 335.742C291.427 423.342 220.538 494.34 133.076 494.34C77.2444 494.34 28.2089 465.287 0.0488892 421.584L0.782222 424.71C29.3822 488.725 83.3556 544 157.862 544C259.013 544 341 461.869 341 360.596C341 259.324 258.964 177.144 157.813 177.144Z" fill="white" fill-opacity="0.08"/>
</g>
<defs>
<filter id="filter0_b_15_148" x="-5" y="-20" width="351" height="569" filterUnits="userSpaceOnUse" color-interpolation-filters="sRGB">
<feFlood flood-opacity="0" result="BackgroundImageFix"/>
<feGaussianBlur in="BackgroundImageFix" stdDeviation="2.5"/>
<feComposite in2="SourceAlpha" operator="in" result="effect1_backgroundBlur_15_148"/>
<feBlend mode="normal" in="SourceGraphic" in2="effect1_backgroundBlur_15_148" result="shape"/>
</filter>
<clipPath id="clip0_15_148">
<rect width="341" height="559" fill="white" transform="translate(0 -15)"/>
</clipPath>
</defs>
</svg>