<svg xmlns="http://www.w3.org/2000/svg" width="47" height="47" viewBox="0 0 47 47" fill="none">
  <g clip-path="url(#clip0_188_1899)">
    <path d="M23.5 47C36.4787 47 47 36.4787 47 23.5C47 10.5213 36.4787 0 23.5 0C10.5213 0 0 10.5213 0 23.5C0 36.4787 10.5213 47 23.5 47Z" fill="white"/>
    <path d="M34.5278 25.7983C34.5278 25.4879 34.276 25.2366 33.9661 25.2366C29.6223 25.2366 25.8584 27.762 24.0616 31.4205V30.1702C25.8914 28.2557 26.8984 25.7544 26.8984 23.097C26.8984 20.4396 25.8327 17.7866 23.8971 15.8514C23.6862 15.6406 23.3133 15.6406 23.1024 15.8514C19.1641 19.7903 19.1114 26.1624 22.9379 30.1697V31.4205C21.1411 27.7615 17.3772 25.2366 13.0334 25.2366C12.723 25.2366 12.4717 25.4884 12.4717 25.7983C12.4717 31.6905 17.1171 36.5186 22.9379 36.8117V39.5263C22.9379 39.8367 23.1896 40.088 23.4995 40.088C23.8094 40.088 24.0611 39.8362 24.0611 39.5263V36.8117C29.8819 36.5181 34.5273 31.6905 34.5273 25.7983H34.5278ZM23.5 17.0688C24.9711 18.7355 25.7746 20.8544 25.7746 23.097C25.7746 25.3396 24.9706 27.4585 23.5 29.1252C20.4721 25.6904 20.4721 20.5036 23.5 17.0688ZM13.6123 26.3767C18.6133 26.6663 22.6314 30.6845 22.9211 35.6855C17.9201 35.3958 13.9019 31.3777 13.6123 26.3767ZM24.0784 35.6855C24.3681 30.6845 28.3862 26.6663 33.3872 26.3767C33.0975 31.3777 29.0794 35.3958 24.0784 35.6855Z" fill="#60B200"/>
    <path d="M42.2414 28.2138L41.1491 25.1943L39.08 27.6497L40.1372 27.8384C38.1725 35.4323 31.4028 40.6939 23.5015 40.6939C14.5828 40.6939 7.22489 34.0085 6.38588 25.1435C6.35829 24.8479 6.09324 24.6302 5.80109 24.6597C5.50599 24.6878 5.28922 24.9494 5.3173 25.2445C5.74345 29.7484 7.82396 33.9174 11.176 36.9827C14.5493 40.0677 18.9266 41.7669 23.5015 41.7669C27.661 41.7669 31.7304 40.3318 34.9608 37.7256C38.0281 35.2515 40.2279 31.8201 41.1964 28.0266L42.2414 28.2128V28.2138Z" fill="#60B200"/>
    <path d="M35.8254 10.0173C32.4527 6.93226 28.0758 5.23306 23.501 5.23306C19.3414 5.23306 15.2715 6.66819 12.0402 9.27437C8.97236 11.7485 6.77213 15.1799 5.80356 18.9729L4.75862 18.7867L5.85085 21.8062L7.92004 19.3508L6.86229 19.1621C8.82752 11.5687 15.5977 6.30657 23.5005 6.30657C32.4177 6.30657 39.7746 12.992 40.6141 21.857C40.6402 22.1348 40.8742 22.3432 41.1477 22.3432C41.1649 22.3432 41.1817 22.3427 41.1989 22.3408C41.494 22.3127 41.7108 22.0511 41.6827 21.756C41.2565 17.2521 39.176 13.0831 35.8249 10.0178L35.8254 10.0173Z" fill="#60B200"/>
    <path d="M10.003 19.1956L9.52217 19.0178L9.87787 18.0561L13.2482 19.302L13.0516 19.8336L10.1621 18.7655L10.003 19.1956Z" fill="#008549"/>
    <path d="M10.8637 16.8446C10.6927 16.5121 10.7312 16.1465 10.979 15.7475C11.2268 15.3484 11.5372 15.1513 11.9111 15.1568C12.2845 15.1622 12.7131 15.3149 13.196 15.6149C13.6847 15.9184 14.0157 16.2367 14.1892 16.5707C14.3631 16.9047 14.3256 17.2713 14.0778 17.6708C13.83 18.0699 13.5182 18.266 13.1418 18.2586C12.7654 18.2512 12.3328 18.096 11.8441 17.7925C11.3613 17.493 11.0341 17.1767 10.8632 16.8446H10.8637ZM12.3042 15.7721C12.1298 15.7041 11.9653 15.6844 11.8106 15.712C11.6559 15.7401 11.5243 15.8416 11.415 16.0174C11.3056 16.1933 11.2731 16.3569 11.3169 16.5076C11.3603 16.6584 11.4514 16.7973 11.5894 16.9235C11.7273 17.0496 11.9096 17.1831 12.1357 17.3235C12.3702 17.4693 12.5757 17.5772 12.7521 17.6482C12.9284 17.7191 13.094 17.7393 13.2477 17.7092C13.4014 17.6792 13.5334 17.5762 13.6423 17.4003C13.7517 17.2245 13.7857 17.0609 13.7443 16.9092C13.7029 16.7574 13.6113 16.6185 13.4694 16.4919C13.3275 16.3653 13.1393 16.2293 12.9048 16.0835C12.6787 15.9431 12.4781 15.8391 12.3037 15.7716L12.3042 15.7721Z" fill="#008549"/>
    <path d="M12.9733 13.8527C12.892 13.4876 13.022 13.1437 13.3625 12.8201C13.7034 12.4964 14.0537 12.385 14.4138 12.485C14.774 12.5851 15.1494 12.8412 15.541 13.2536C15.9371 13.6709 16.1766 14.0626 16.2598 14.4301C16.3436 14.7971 16.2145 15.1425 15.8736 15.4662C15.5327 15.7898 15.1814 15.9002 14.8193 15.7977C14.4572 15.6952 14.0778 15.4356 13.6822 15.0188C13.291 14.6065 13.0546 14.2177 12.9733 13.8532V13.8527ZM14.638 13.1797C14.4862 13.0698 14.332 13.0092 14.1754 12.9969C14.0187 12.9851 13.8655 13.0496 13.7152 13.1925C13.565 13.3354 13.492 13.4852 13.496 13.6418C13.4999 13.799 13.5526 13.9561 13.6546 14.1133C13.7561 14.2705 13.8985 14.4458 14.0818 14.6385C14.2719 14.8385 14.4434 14.9957 14.5961 15.109C14.7488 15.2223 14.9035 15.2839 15.0602 15.2937C15.2169 15.3041 15.3701 15.2376 15.5203 15.0947C15.6706 14.9518 15.745 14.8025 15.743 14.6454C15.7415 14.4887 15.6878 14.3311 15.5829 14.1724C15.478 14.0138 15.3302 13.8345 15.14 13.6344C14.9567 13.4413 14.7892 13.2901 14.6375 13.1802L14.638 13.1797Z" fill="#008549"/>
    <path d="M15.5824 11.4219C15.6445 11.2371 15.7731 11.0943 15.9692 10.9933C16.1647 10.8928 16.3564 10.8716 16.5426 10.9292C16.7288 10.9869 16.8771 11.1223 16.9865 11.3357C17.0959 11.549 17.12 11.749 17.0589 11.9352C16.9973 12.122 16.8692 12.2653 16.6732 12.3658C16.4771 12.4663 16.2854 12.487 16.0987 12.4279C15.911 12.3688 15.7632 12.2328 15.6534 12.019C15.544 11.8057 15.5198 11.6066 15.5819 11.4214L15.5824 11.4219ZM16.044 11.8195C16.1761 12.0766 16.3342 12.1579 16.518 12.0633C16.6057 12.0185 16.6574 11.952 16.6737 11.8643C16.6899 11.7766 16.6638 11.6667 16.5963 11.5357C16.4658 11.2815 16.3086 11.2012 16.1243 11.2958C15.9401 11.3904 15.9135 11.5648 16.044 11.819V11.8195ZM18.0073 10.0198L17.8235 13.9699L17.3324 14.2222L17.5161 10.272L18.0073 10.0203V10.0198ZM18.2876 12.2998C18.3497 12.1146 18.4783 11.9722 18.6744 11.8712C18.8675 11.7722 19.0572 11.7515 19.2434 11.8091C19.4296 11.8668 19.5779 12.0022 19.6873 12.2156C19.7966 12.4289 19.8208 12.6289 19.7597 12.8156C19.6981 13.0023 19.571 13.1447 19.3784 13.2438C19.1823 13.3443 18.9907 13.3649 18.8034 13.3063C18.6157 13.2472 18.4679 13.1112 18.3581 12.8974C18.2482 12.6836 18.2246 12.4846 18.2866 12.2998H18.2876ZM18.7448 12.6994C18.8754 12.9536 19.033 13.0339 19.2168 12.9393C19.401 12.8447 19.4276 12.6703 19.2971 12.4161C19.1665 12.1619 19.0094 12.0816 18.8251 12.1762C18.6409 12.2707 18.6143 12.4451 18.7443 12.6994H18.7448Z" fill="#008549"/>
    <path d="M23.2882 9.20146C23.5709 9.32364 23.7951 9.51036 23.9606 9.76161C24.1262 10.0129 24.2203 10.3124 24.2419 10.6602C24.2636 11.0076 24.2084 11.314 24.0749 11.5795C23.9414 11.8446 23.7424 12.054 23.4773 12.2077C23.2123 12.3614 22.8975 12.4491 22.5334 12.4718L21.4165 12.5422L21.2012 9.12362L22.3176 9.05316C22.6817 9.0305 23.0049 9.07977 23.2877 9.20195L23.2882 9.20146ZM23.4044 11.6313C23.6039 11.4012 23.6911 11.0893 23.6665 10.6962C23.6419 10.2996 23.5158 9.99612 23.2886 9.78674C23.061 9.57686 22.7477 9.48474 22.3477 9.51036L21.7919 9.54533L21.9496 12.0495L22.5053 12.0146C22.9054 11.9894 23.2054 11.8618 23.4049 11.6323L23.4044 11.6313Z" fill="#008549"/>
    <path d="M25.7017 9.17042L25.2509 12.5663L24.6942 12.4924L25.145 9.09652L25.7022 9.17042H25.7017Z" fill="#008549"/>
    <path d="M28.9355 11.0952C28.9094 10.9046 28.837 10.7415 28.7178 10.6065C28.5986 10.4715 28.4414 10.3691 28.2463 10.2996C28.0325 10.2232 27.8251 10.2035 27.6241 10.2395C27.4226 10.2755 27.2432 10.3651 27.0861 10.508C26.9284 10.6504 26.8082 10.8381 26.7254 11.0701C26.6422 11.3022 26.6161 11.5239 26.6471 11.7357C26.6782 11.9471 26.7599 12.1308 26.8925 12.2865C27.0255 12.4422 27.1984 12.558 27.4117 12.6343C27.6994 12.7373 27.962 12.7403 28.199 12.6437C28.436 12.5471 28.6237 12.3683 28.7626 12.1072L27.5512 11.6741L27.7019 11.2519L29.4794 11.8875L29.3321 12.3003C29.2085 12.5388 29.037 12.7378 28.8183 12.8964C28.599 13.0556 28.3517 13.1565 28.0763 13.1994C27.8009 13.2423 27.5226 13.2132 27.2408 13.1127C26.9373 13.0043 26.6855 12.8348 26.4855 12.6043C26.2855 12.3737 26.1564 12.1072 26.0988 11.8042C26.0411 11.5007 26.0687 11.1918 26.182 10.876C26.2949 10.5602 26.4698 10.3035 26.7062 10.1055C26.9427 9.90744 27.2122 9.7828 27.5147 9.73205C27.8172 9.68131 28.1187 9.70988 28.4187 9.81679C28.7626 9.93946 29.0375 10.1331 29.2454 10.3976C29.4528 10.6617 29.5612 10.9706 29.5716 11.3229L28.9355 11.0957V11.0952Z" fill="#008549"/>
    <path d="M31.3486 11.311L29.5479 14.2251L29.07 13.9295L30.8707 11.0154L31.3486 11.311Z" fill="#008549"/>
    <path d="M33.9706 13.4088L33.6676 13.7532L32.9833 13.1506L31.0225 15.3775L30.6007 15.006L32.5615 12.7792L31.8738 12.1732L32.1768 11.8293L33.971 13.4093L33.9706 13.4088Z" fill="#008549"/>
    <path d="M33.6415 17.4851L32.835 16.2992L32.1176 16.4889L31.7881 16.0041L35.315 15.0898L35.6811 15.6277L33.5345 18.5719L33.202 18.0827L33.6424 17.4851H33.6415ZM33.9321 17.0969L34.9357 15.7411L33.303 16.1716L33.9321 17.0969Z" fill="#008549"/>
    <path d="M34.2021 19.2222L34.6169 20.3036L34.1937 20.4662L33.5774 18.8601L36.7758 17.6329L36.9773 18.1576L34.2021 19.2222Z" fill="#008549"/>
  </g>
  <defs>
    <clipPath id="clip0_188_1899">
      <rect width="47" height="47" fill="white"/>
    </clipPath>
  </defs>
</svg>