<svg xmlns="http://www.w3.org/2000/svg" width="130" height="130" viewBox="0 0 130 130" fill="none">
  <g clip-path="url(#clip0_21_695)">
    <path d="M48.1788 2.23158C13.5156 11.5187 -7.05546 47.1519 2.23161 81.8215C11.5187 116.491 47.1519 137.062 81.8215 127.775C116.491 118.488 137.062 82.8548 127.775 48.1852C118.482 13.5155 82.8485 -7.05549 48.1788 2.23158Z" fill="white"/>
    <path d="M80.75 123.775C48.3435 132.453 14.9164 113.157 6.23153 80.75C-2.4533 48.3435 16.8499 14.9164 49.2564 6.23157C81.6628 -2.45327 115.09 16.8499 123.775 49.2564C132.453 81.6565 113.156 115.09 80.75 123.775ZM49.7064 7.9305C18.2382 16.3618 -0.5008 48.8253 7.93047 80.2936C16.3617 111.762 48.8253 130.501 80.2936 122.07C111.762 113.638 130.501 81.1748 122.07 49.7065C113.638 18.2382 81.1747 -0.50077 49.7064 7.9305Z" fill="#9B9A9A"/>
    <path d="M75.9638 105.911C53.4086 111.952 30.137 98.519 24.0957 75.9638C18.0543 53.4086 31.4873 30.137 54.0425 24.0957C76.5978 18.0543 99.8693 31.4873 105.911 54.0425C111.952 76.5977 98.5191 99.863 75.9638 105.911ZM54.5497 25.9848C33.0341 31.7472 20.2224 53.9411 25.9911 75.4567C31.7536 96.9722 53.9474 109.784 75.463 104.015C96.9786 98.2528 109.79 76.0589 104.022 54.5433C98.2528 33.0341 76.0589 20.2224 54.5497 25.9848Z" fill="#9B9A9A"/>
    <path d="M59.9508 50.6256C55.4499 46.1247 46.6382 45.6049 40.4004 45.6049C39.7538 45.6049 39.2276 46.131 39.2276 46.7776C39.2276 53.0155 39.7474 61.8271 44.2483 66.328C46.1501 68.2298 49.0599 69.0793 51.9506 69.0793C55.0885 69.0793 58.2011 68.0777 59.9444 66.328C63.3043 62.9682 63.9192 54.594 59.9508 50.6256ZM58.2962 64.6735C55.7922 67.1775 48.838 67.6022 45.9092 64.6735C42.2768 61.041 41.6429 53.6558 41.5795 47.9567C47.2785 48.0265 54.6638 48.6541 58.2962 52.2865C61.225 55.2152 60.8002 62.1694 58.2962 64.6735Z" fill="#3DA936"/>
    <path d="M89.5997 50.2325C83.3618 50.2325 74.5502 50.7524 70.0493 55.2533C66.0809 59.2217 66.6958 67.5959 70.0493 70.9494C71.7989 72.6927 74.9052 73.7006 78.0431 73.7006C80.9338 73.7006 83.8436 72.8512 85.7454 70.9557C90.2463 66.4548 90.7661 57.6432 90.7661 51.4053C90.7724 50.7587 90.2463 50.2325 89.5997 50.2325ZM84.0908 69.2948C81.1621 72.2236 74.2078 71.7988 71.7038 69.2948C69.1998 66.7908 68.7751 59.8366 71.7038 56.9078C75.3362 53.2754 82.7215 52.6415 88.4206 52.5781C88.3508 58.2835 87.7232 65.6624 84.0908 69.2948Z" fill="#3DA936"/>
    <path d="M81.1494 60.3628C80.8704 59.7732 80.0844 59.5767 79.5012 59.8429C70.5247 64.0649 66.1189 71.4185 64.1157 78.9813C61.637 62.8985 54.4673 57.9982 51.4307 55.9189C51.0504 55.659 50.7588 55.4688 50.594 55.3103C50.1375 54.8539 49.3958 54.8539 48.9394 55.3103C48.483 55.7668 48.483 56.5085 48.9394 56.9649C49.174 57.1931 49.5733 57.4847 50.1122 57.8524C53.5354 60.1979 62.6386 66.4231 62.6386 91.2415C62.6386 91.8881 63.1648 92.4143 63.8114 92.4143C64.458 92.4143 64.9842 91.8881 64.9842 91.2478C64.9842 81.2191 67.6784 68.0016 80.5091 61.9729L80.6993 61.8842C81.2698 61.5989 81.4283 60.946 81.1494 60.3628Z" fill="#3DA936"/>
    <path d="M28.7234 101.067C30.5808 98.931 32.4065 97.9294 34.8028 100.015C35.5445 100.662 36.0579 101.422 36.2735 102.196L34.397 102.735C34.2703 102.304 33.9787 101.853 33.4905 101.429C32.5079 100.573 31.7028 100.693 30.2004 102.424C28.7234 104.123 28.6473 104.979 29.6616 105.854C30.1687 106.291 30.5998 106.487 31.2211 106.576L30.9548 108.364C30.0863 108.224 29.3636 107.946 28.4191 107.128C26.2257 105.213 26.8089 103.267 28.7234 101.067Z" fill="#9B9A9A"/>
    <path d="M37.7632 102.544L42.6572 105.606L41.6999 107.134L38.4479 105.099L37.4589 106.678L40.5715 108.624L39.6206 110.139L36.508 108.193L35.386 109.987L38.6507 112.028L37.7189 113.524L32.8186 110.456L37.7632 102.544Z" fill="#9B9A9A"/>
    <path d="M44.5399 113.27L43.3989 112.795L42.2007 115.679L40.4067 114.931L43.9884 106.316L47.2848 107.686C49.3578 108.548 49.7128 109.866 48.9901 111.61C48.464 112.877 47.6335 113.721 46.41 113.74L46.4924 117.454L44.578 116.662L44.5399 113.27ZM45.5162 111.806C46.3086 112.136 46.7714 111.92 47.1517 111.001C47.5384 110.069 47.3673 109.6 46.5748 109.27L45.1168 108.662L44.0645 111.198L45.5162 111.806Z" fill="#9B9A9A"/>
    <path d="M50.0551 113.765C50.6003 111.28 51.5956 109.207 54.8666 109.923C58.1314 110.64 58.1694 112.941 57.6242 115.426C57.0791 117.898 56.0838 119.971 52.8127 119.255C49.548 118.538 49.5099 116.237 50.0551 113.765ZM55.6527 115.058C56.0267 113.347 56.0838 112.136 54.4609 111.781C52.8317 111.426 52.3816 112.548 52.0076 114.259C51.6273 115.984 51.5702 117.195 53.1994 117.55C54.8223 117.905 55.2724 116.776 55.6527 115.058Z" fill="#9B9A9A"/>
    <path d="M62.683 111.172L66.2774 111.109C68.5215 111.071 69.3773 112.187 69.409 114.088C69.4407 115.965 68.6483 117.34 66.3471 117.378L64.7306 117.41L64.7876 120.472L62.8415 120.504L62.683 111.172ZM66.2964 115.667C67.1522 115.654 67.5009 115.242 67.4818 114.234C67.4628 113.213 67.1015 112.833 66.2457 112.846L64.6545 112.878L64.7052 115.698L66.2964 115.667Z" fill="#9B9A9A"/>
    <path d="M71.9954 110.551L74.0874 110.19L78.5693 118.944L76.5661 119.293L75.8941 117.943L72.8449 118.469L72.6801 119.965L70.7276 120.301L71.9954 110.551ZM75.127 116.307L73.4788 113.004L73.0161 116.675L75.127 116.307Z" fill="#9B9A9A"/>
    <path d="M78.0241 109.391L81.403 108.161C83.5139 107.394 84.6867 108.174 85.3333 109.961C85.9736 111.724 85.6693 113.283 83.5076 114.069L81.9862 114.621L83.0322 117.499L81.2064 118.164L78.0241 109.391ZM82.9054 112.472C83.7105 112.18 83.907 111.679 83.5647 110.735C83.216 109.778 82.7532 109.53 81.9418 109.822L80.4457 110.367L81.4093 113.017L82.9054 112.472Z" fill="#9B9A9A"/>
    <path d="M85.4728 106.507L90.4998 103.679L91.381 105.251L88.0339 107.134L88.9467 108.757L92.1481 106.957L93.0229 108.516L89.8215 110.316L90.8548 112.161L94.2083 110.272L95.0705 111.806L90.0307 114.64L85.4728 106.507Z" fill="#9B9A9A"/>
    <path d="M91.7867 102.779L93.3525 101.562L98.0056 107.527L100.871 105.289L101.955 106.678L97.5238 110.133L91.7867 102.779Z" fill="#9B9A9A"/>
    <path d="M23.1765 32.6853L22.3777 33.6996L21.0148 32.6283L22.9863 30.1179L30.3209 35.8803L29.1418 37.3764L23.1765 32.6853Z" fill="#9B9A9A"/>
    <path d="M28.4888 30.7645C26.4729 28.6155 25.503 27.0053 27.7281 24.9197C29.9405 22.8467 31.5 23.9561 33.4842 26.0798C35.5698 28.3049 36.4637 29.8263 34.2639 31.8929C32.0515 33.9595 30.5364 32.9516 28.4888 30.7645ZM32.0579 27.4174C30.5998 25.8642 29.8771 25.4268 28.9833 26.2636C28.0704 27.1194 28.4635 27.8738 29.9215 29.4206C31.3859 30.98 32.1466 31.4618 33.0595 30.606C33.9596 29.7566 33.5222 28.9768 32.0579 27.4174Z" fill="#9B9A9A"/>
    <path d="M35.5254 24.5013C33.9533 22.01 33.3003 20.2477 35.8804 18.6185C38.4415 16.9956 39.7664 18.3839 41.3196 20.8372C42.9488 23.411 43.5383 25.0782 40.9899 26.6947C38.4288 28.3113 37.1229 27.0307 35.5254 24.5013ZM39.6587 21.8832C38.5239 20.0828 37.89 19.5123 36.8567 20.1716C35.798 20.8372 36.0453 21.655 37.1863 23.449C38.3338 25.2557 38.9867 25.8706 40.0454 25.205C41.0913 24.5394 40.8061 23.6899 39.6587 21.8832Z" fill="#9B9A9A"/>
    <path d="M42.86 17.8641C42.15 15.696 42.7269 14.6627 44.3117 14.1429C45.8965 13.6231 46.9996 14.1112 47.7096 16.2792C48.4196 18.4473 47.8173 19.4869 46.2325 20.0067C44.6477 20.5202 43.57 20.0258 42.86 17.8641ZM46.1184 16.8498C45.7317 15.6643 45.3957 15.3791 44.7998 15.5756C44.1976 15.7721 44.1025 16.2032 44.4892 17.3886C44.8823 18.5867 45.2119 18.8593 45.8078 18.6628C46.4037 18.46 46.5051 18.0479 46.1184 16.8498ZM49.231 12.6215L50.9109 12.0699L49.7128 22.2762L48.0456 22.8214L49.231 12.6215ZM51.2279 18.6184C50.5242 16.4631 51.0948 15.4171 52.6796 14.8973C54.2771 14.3775 55.3675 14.8783 56.0775 17.0336C56.7938 19.208 56.2042 20.254 54.6067 20.7738C53.0156 21.2936 51.9379 20.7992 51.2279 18.6184ZM54.4926 17.6168C54.0996 16.4187 53.7573 16.1461 53.1614 16.3426C52.5591 16.5392 52.4577 16.9575 52.8508 18.1557C53.2375 19.3411 53.5734 19.6264 54.1693 19.4299C54.7716 19.2334 54.8857 18.7959 54.4926 17.6168Z" fill="#9B9A9A"/>
    <path d="M61.1552 10.3837L64.0713 10.3393C67.0381 10.2886 68.2045 11.3663 68.2616 14.929C68.3187 18.5677 67.2156 19.6201 64.2235 19.6644L61.3074 19.7088L61.1552 10.3837ZM64.3756 17.9465C65.7512 17.9211 66.2964 17.3633 66.2584 14.967C66.2203 12.5898 65.6688 12.108 64.2298 12.127L63.1711 12.146L63.2662 17.9592L64.3756 17.9465Z" fill="#9B9A9A"/>
    <path d="M71.3425 10.688L73.295 10.9542L72.0398 20.1969L70.0873 19.9307L71.3425 10.688Z" fill="#9B9A9A"/>
    <path d="M75.051 15.8925C75.9512 12.6912 77.2951 11.5565 80.1732 12.3679C81.2762 12.6785 82.0686 13.2174 82.5884 13.7942L81.1367 15.0874C80.7881 14.7388 80.338 14.3901 79.5709 14.1746C78.3918 13.8449 77.6121 14.1049 76.9401 16.4821C76.2998 18.7579 76.5534 19.5376 77.8783 19.9117C79.0321 20.235 79.4061 19.7025 79.7928 18.3205L79.8562 18.105L78.1065 17.6105L78.5693 15.975L82.132 16.9766L81.7073 18.4917C80.8895 21.3887 79.9576 22.2382 77.2571 21.4775C74.4741 20.6914 74.2459 18.7389 75.051 15.8925Z" fill="#9B9A9A"/>
    <path d="M85.9546 14.5233L87.7549 15.3157L83.9957 23.8548L82.1954 23.0624L85.9546 14.5233Z" fill="#9B9A9A"/>
    <path d="M91.5268 19.3158L89.3841 18.0036L90.3223 16.4695L96.3193 20.1399L95.3811 21.674L93.2257 20.3555L89.2954 26.7772L87.5964 25.7375L91.5268 19.3158Z" fill="#9B9A9A"/>
    <path d="M99.6538 22.7454L101.258 24.1273L97.3336 33.1418L95.7932 31.8169L96.4144 30.4413L94.0689 28.4254L92.8073 29.2495L91.3049 27.9563L99.6538 22.7454ZM97.1941 28.8121L98.7029 25.4396L95.5713 27.4111L97.1941 28.8121Z" fill="#9B9A9A"/>
    <path d="M105.442 28.324L106.697 29.8581L100.839 34.6506L103.14 37.4652L101.777 38.581L98.2148 34.2322L105.442 28.324Z" fill="#9B9A9A"/>
  </g>
  <defs>
    <clipPath id="clip0_21_695">
      <rect width="130" height="130" fill="white"/>
    </clipPath>
  </defs>
</svg>