<svg xmlns="http://www.w3.org/2000/svg" width="82" height="69" viewBox="0 0 82 69" fill="none">
  <g clip-path="url(#clip0_78_262)">
    <path d="M11.9173 1.87605V27.3958L16.9467 21.5194L21.566 27.4234V1.90364C23.2607 2.17953 24.9007 2.59336 26.486 3.14514V1.54498C23.3973 0.52419 20.1173 0 16.728 0C13.3113 0 10.2773 0.496601 7.87199 1.10356V2.70372C9.07466 2.40024 10.414 2.09676 11.9173 1.87605Z" fill="white"/>
    <path d="M80.688 8.22151V3.17273L80.2507 2.95202C80.0047 2.84166 74.0187 0 65.928 0C56.3613 0 47.8607 4.11076 41.328 11.8633C34.768 4.11076 26.2947 0 16.728 0C8.61 0 2.65133 2.84166 2.40533 2.97961L1.968 3.17273V8.22151H0V9.15954V61.7717V62.7097C0 62.7097 21.0467 51.012 40.672 62.8477C40.672 62.8477 40.8907 63.096 41 63.0408C41.1093 63.096 41.328 62.8477 41.328 62.8477C43.788 61.3579 46.2753 60.2543 48.7353 59.4266C51.1133 65.6342 56.5253 68.9724 56.5253 68.9724H71.586C71.586 68.9724 73.9913 65.11 75.2487 59.8956C79.4307 61.2475 82 62.6821 82 62.6821V61.7441V9.18713V8.22151H80.688ZM42.0933 13.3255C48.4893 5.4902 56.498 1.54498 65.9553 1.54498C72.488 1.54498 77.6813 3.53139 79.1847 4.16593V53.2467C78.1187 52.7501 77.0253 52.3087 75.9593 51.8948C75.4947 45.3838 72.9253 44.8321 71.9687 44.8872C71.9413 45.7701 71.8867 46.6254 71.832 47.3703C71.7773 48.3083 71.668 49.0808 71.6407 49.6325C71.586 50.1843 71.5313 50.4878 71.5313 50.4878C71.5313 50.4878 71.4767 50.1843 71.422 49.6325C71.3673 49.0808 71.2853 48.3083 71.2307 47.3703C71.094 45.6321 71.0393 43.3423 71.012 41.0248C69.8367 37.99 67.24 38.6246 66.256 38.9832C66.2287 41.7697 66.1467 44.4734 66.0373 46.5702C65.9827 47.7289 65.8733 48.7221 65.846 49.3842C65.846 49.467 65.846 49.5222 65.8187 49.605C65.764 49.605 65.7093 49.605 65.6547 49.5774C65.6547 49.5222 65.6547 49.4394 65.6273 49.3842C65.5727 48.6945 65.4907 47.7289 65.436 46.5702C65.2993 44.2251 65.2173 41.1076 65.2173 37.99C65.2173 37.2175 65.2173 36.4174 65.2447 35.6449C64.0693 33.1068 61.5273 33.4378 60.4613 33.7137C60.4613 34.5414 60.4613 35.3966 60.4887 36.2519C60.4887 38.0176 60.4613 39.8109 60.434 41.4662C60.4067 43.1216 60.3247 44.6941 60.27 46.0184C60.2153 47.3427 60.106 48.4738 60.0787 49.2463C60.0787 49.3843 60.0513 49.4946 60.0513 49.605C59.9967 49.605 59.942 49.605 59.9147 49.605C59.9147 49.4946 59.8873 49.3843 59.8873 49.2463C59.8327 48.4738 59.7507 47.3703 59.696 46.0184C59.6413 44.6941 59.5593 43.1216 59.532 41.4662C59.4773 39.8109 59.4773 38.0176 59.4773 36.2519C59.4773 34.4862 59.5047 32.6929 59.532 31.0376C59.5593 29.3822 59.6413 27.8097 59.696 26.4854C59.7233 26.0164 59.7507 25.575 59.7507 25.1611C59.7233 25.0508 59.696 24.968 59.696 24.8577C63.55 23.892 68.1693 23.5334 73.3627 24.5542L73.6633 23.0092C68.1693 21.9056 63.304 22.2919 59.204 23.3403C58.6847 22.2367 57.892 21.547 56.58 21.547C55.3227 21.547 54.53 23.0092 54.038 25.1335C48.38 27.6441 45.182 30.9548 45.1273 31.0376L46.248 32.1411C46.3027 32.086 48.954 29.3547 53.6827 27.0372C53.054 31.479 53.3 37.2727 53.382 39.2591C53.4913 42.0732 53.546 48.5566 53.5733 50.6533C53.546 50.6533 53.4913 50.6809 53.464 50.6809L51.742 41.5214C50.8673 41.4662 47.724 44.3079 47.6693 52.6949C45.1547 53.7985 43.2687 54.9572 42.1207 55.7297V15.3671V13.6289V13.3255H42.0933ZM3.49867 4.16593C4.592 3.69692 7.57133 2.5106 11.9173 1.87605C14.2953 1.51739 19.188 1.51739 21.566 1.90364C29.0007 3.11755 35.3147 6.86965 40.5627 13.3255V14.2635V15.3671V55.7297C37.72 53.7985 30.176 49.467 19.8713 49.467C14.35 49.467 8.856 50.7361 3.49867 53.2467V4.16593ZM41.328 60.4198C41.328 60.4198 27.6887 48.4186 2.73333 57.6609V55.3159L3.06133 55.1503C8.55533 52.3914 14.2133 51.012 19.8713 51.012C32.2807 51.012 40.754 57.7713 40.836 57.8265L41.3007 58.3783L41.7653 57.8265C41.82 57.7989 43.952 56.0884 47.6147 54.3778C47.6693 55.3159 47.7787 56.1987 47.97 57.054C43.7333 58.6541 41.328 60.4198 41.328 60.4198ZM75.8773 56.3091C75.9593 55.5642 76.014 54.7917 76.014 54.0192C76.014 53.8537 76.014 53.7157 76.014 53.5778C77.2167 54.0468 78.4193 54.571 79.5947 55.1503L79.9227 55.3159V57.6609C78.5287 57.1367 77.1893 56.6953 75.8773 56.3091Z" fill="white"/>
    <path d="M73.2807 10.0424L73.5813 8.49745C56.17 5.04883 45.182 16.4155 45.0727 16.5534L46.1933 17.657C46.3027 17.519 56.7167 6.75934 73.2807 10.0424Z" fill="white"/>
    <path d="M73.2807 17.2983L73.5813 15.7533C56.17 12.2771 45.1547 23.6713 45.0453 23.7817L46.166 24.8852C46.3027 24.7749 56.7167 14.0152 73.2807 17.2983Z" fill="white"/>
  </g>
  <defs>
    <clipPath id="clip0_78_262">
      <rect width="82" height="69" fill="white"/>
    </clipPath>
  </defs>
</svg>