<svg xmlns="http://www.w3.org/2000/svg" width="83" height="89" viewBox="0 0 83 89" fill="none">
  <g clip-path="url(#clip0_78_277)">
    <path d="M67.7003 70.224C60.4793 66.3364 55.444 66.4743 52.124 63.6069C51.792 63.2485 51.3493 61.2358 51.0727 59.8296C54.1437 57.4034 56.8273 53.9018 58.2107 49.5731C58.7087 48.0291 59.013 46.7608 59.179 45.9613C60.1473 45.6856 61.5307 44.886 63.3567 42.9836C65.5977 40.64 68.8623 33.3061 67.23 28.8395C66.7873 27.5988 65.985 26.6614 64.906 26.0548C67.7833 5.70725 57.3253 0 41.6107 0C29.5203 0 16.683 3.52912 18.8963 25.8343C17.513 26.3857 16.4893 27.4058 15.9637 28.8671C14.359 33.3336 17.596 40.6676 19.837 43.0112C21.663 44.9136 23.0463 45.7131 24.0147 45.9889C24.1807 46.7608 24.4573 48.0016 24.983 49.6007C26.3663 53.9294 29.05 57.4034 32.121 59.8296C31.706 61.6218 31.0973 63.6069 31.0973 63.6069C27.7773 66.4743 22.742 66.3364 15.521 70.224C8.27234 74.1115 5.53334 88.035 5.53334 88.035H41.583H77.6327C77.6603 88.035 74.9213 74.1115 67.7003 70.224ZM41.6107 69.6174C35.1367 69.6174 33.781 65.2336 33.5043 63.7999C33.6703 63.2485 33.947 62.2835 34.196 61.2909C36.7137 62.8073 39.342 63.662 41.6107 63.662C43.8793 63.662 46.48 62.8349 48.97 61.3185C49.2743 62.7246 49.5233 63.6069 49.7447 64.1583C49.3573 65.3163 47.5313 69.6174 41.6107 69.6174ZM48.9147 58.5062C47.3653 59.609 45.733 60.4086 44.2667 60.8498C43.2983 61.1255 42.413 61.2909 41.6107 61.2909C40.8083 61.2909 39.8953 61.153 38.9547 60.8498C37.4607 60.4086 35.856 59.609 34.3067 58.5062C31.374 56.4108 28.635 53.1849 27.2517 48.8838C26.4493 46.3473 26.228 44.7757 26.2003 44.7757L26.0067 43.4523L24.8447 43.7556C24.6233 43.728 23.572 43.4799 21.5523 41.3845C19.6987 39.4545 16.9597 33.0304 18.177 29.6391C18.592 28.4811 19.4497 27.847 20.833 27.6815L21.8567 27.5713V27.3783C22.5207 28.1503 23.1017 30.163 23.904 36.2838H25.3427V20.0167C25.3427 20.0167 46.397 22.9117 53.452 13.8683C54.2267 14.2819 54.9183 14.7506 55.527 15.2193C58.598 22.1397 58.2107 36.2838 58.2107 36.2838H59.9537C59.9537 36.2838 60.5623 29.6667 61.5307 27.6264L62.3883 27.7367C63.7717 27.9021 64.6293 28.5362 65.0443 29.6942C66.2617 33.0855 63.5227 39.5096 61.669 41.4396C59.6493 43.535 58.598 43.7832 58.3767 43.8107L57.2147 43.5074L57.021 44.8033C57.021 44.8309 56.7443 46.5403 55.9697 48.939C54.5863 53.2125 51.8473 56.4384 48.9147 58.5062Z" fill="white"/>
    <path d="M67.7003 70.224C60.6453 66.4192 55.6653 66.4743 52.3453 63.7999H49.6063C49.634 63.9102 49.6893 64.0481 49.717 64.1308C49.3297 65.2888 47.5037 69.5899 41.5553 69.5899C35.109 69.5899 33.7257 65.206 33.449 63.7723H30.8207C27.5007 66.4468 22.5207 66.4192 15.4657 70.1964C8.27234 74.1116 5.53334 88.035 5.53334 88.035H41.583H77.6327C77.6603 88.035 74.9213 74.1116 67.7003 70.224Z" fill="white" stroke="white" stroke-width="0.1228" stroke-miterlimit="10"/>
    <path d="M28.3584 40.3643H36.3817C38.2354 40.3643 39.7294 38.8754 39.7294 37.0281V34.1883C39.7294 34.1056 39.7017 34.0229 39.7017 33.9402H44.2114C44.2114 34.0229 44.1837 34.1056 44.1837 34.1883V37.0281C44.1837 38.8754 45.6777 40.3643 47.5314 40.3643H55.5547C57.4084 40.3643 58.9024 38.8754 58.9024 37.0281V34.1883C58.9024 32.341 57.4084 30.8522 55.5547 30.8522H47.5314C46.2034 30.8522 45.0967 31.6242 44.5434 32.727H39.3697C38.8164 31.6242 37.682 30.8522 36.3817 30.8522H28.3584C26.5047 30.8522 25.0107 32.341 25.0107 34.1883V37.0281C24.983 38.8754 26.5047 40.3643 28.3584 40.3643ZM46.0097 34.1883C46.0097 33.3612 46.7014 32.6719 47.5314 32.6719H55.5547C56.3847 32.6719 57.0764 33.3612 57.0764 34.1883V37.0281C57.0764 37.8553 56.3847 38.5446 55.5547 38.5446H47.5314C46.7014 38.5446 46.0097 37.8553 46.0097 37.0281V34.1883ZM26.8367 34.1883C26.8367 33.3612 27.5284 32.6719 28.3584 32.6719H36.3817C37.2117 32.6719 37.9034 33.3612 37.9034 34.1883V37.0281C37.9034 37.8553 37.2117 38.5446 36.3817 38.5446H28.3584C27.5284 38.5446 26.8367 37.8553 26.8367 37.0281V34.1883Z" fill="white"/>
    <path d="M39.176 67.5771C37.848 67.5771 36.7413 68.7076 36.7413 70.1137V75.1592C36.7413 76.5654 37.848 77.6958 39.176 77.6958H43.7133C45.0413 77.6958 46.148 76.5654 46.148 75.1592V70.1137C46.148 68.7351 45.0413 67.5771 43.7133 67.5771H39.176Z" fill="#FAAE08"/>
    <path d="M45.2627 79.1571C44.8754 79.4052 44.405 79.5431 43.8794 79.5431H39.01C38.4567 79.5431 37.9587 79.3776 37.5437 79.1019L36.3817 82.4105L40.4764 89.0276H41.2787H41.5H42.413L46.4247 82.5483L45.2627 79.1571Z" fill="#FAAE08"/>
  </g>
  <defs>
    <clipPath id="clip0_78_277">
      <rect width="83" height="89" fill="white"/>
    </clipPath>
  </defs>
</svg>