<svg width="326" height="94" viewBox="0 0 326 94" fill="none" xmlns="http://www.w3.org/2000/svg">
<g clip-path="url(#clip0_80_491)">
<path d="M30.698 61.6813C31.4027 61.6813 32.0829 61.6239 32.7713 61.5746C19.0858 60.5072 8.3014 49.0363 8.3014 35.0119C8.3014 20.2813 20.184 8.34242 34.8446 8.34242C44.2031 8.34242 52.4226 13.228 57.1428 20.5769L57.0199 20.0514C52.2423 9.2949 43.1951 0 30.698 0C13.7428 0 0 13.811 0 30.8407C0 47.8704 13.7428 61.6813 30.698 61.6813Z" fill="url(#paint0_linear_80_491)"/>
<path d="M26.453 32.3104C25.7483 32.3104 25.0681 32.3679 24.3797 32.4172C38.0651 33.4846 48.8496 44.9554 48.8496 58.9799C48.8496 73.7105 36.967 85.6493 22.3064 85.6493C12.9479 85.6493 4.72842 80.7638 0.00817871 73.4149L0.131102 73.9404C4.9251 84.7051 13.9722 94 26.4612 94C43.4164 94 57.1592 80.189 57.1592 63.1593C57.1592 46.1296 43.4082 32.3104 26.453 32.3104Z" fill="url(#paint1_linear_80_491)"/>
<path d="M98.5925 63.9229L93.3969 61.8127C89.8403 60.3921 87.1688 59.4807 87.1688 56.9764C87.1688 54.6362 89.193 53.3142 92.3726 53.3142C95.5931 53.3142 98.1499 54.4474 100.838 56.5165L105.493 50.6949C101.977 47.1888 97.0682 45.3413 92.3726 45.3413C83.8827 45.3413 77.8431 50.7442 77.8431 57.5183C77.8431 63.4549 81.8503 66.9363 86.0789 68.6607L91.381 70.9269C94.9457 72.3967 97.2649 73.2178 97.2649 75.7878C97.2649 78.2183 95.3801 79.7374 91.5285 79.7374C88.1768 79.7374 84.4153 77.9966 81.5144 75.4676L76.2123 81.7983C80.3753 85.6986 86.0133 87.7103 91.3154 87.7103C101.035 87.7103 106.681 81.8312 106.681 75.0489C106.681 69.2601 103.575 65.9428 98.5925 63.9229Z" fill="#E42320"/>
<path d="M121.235 46.0885L108.426 86.9466H117.85L120.366 77.2166H132.798L135.305 86.9466H145.066L132.265 46.0885H121.235ZM122.226 70.0401L123.21 66.2548C124.341 62.1657 125.431 57.3869 126.422 53.0761H126.676C127.766 57.3376 128.856 62.1657 129.987 66.2548L130.962 70.0401H122.226Z" fill="#E42320"/>
<path d="M166.257 79.7291C160.3 79.7291 156.399 74.8518 156.399 66.4437C156.399 58.2491 160.816 53.3142 166.405 53.3142C169.355 53.3142 171.56 54.6526 173.608 56.5658L178.468 50.6456C175.723 47.8293 171.469 45.3413 166.2 45.3413C155.891 45.3413 146.95 53.1993 146.95 66.7557C146.95 80.5174 155.588 87.7021 165.93 87.7021C171.207 87.7021 175.714 85.6575 179.099 81.708L174.239 75.9028C172.248 78.0787 169.609 79.7291 166.257 79.7291Z" fill="#E42320"/>
<path d="M192.891 46.0885L180.082 86.9466H189.506L192.022 77.2166H204.462L206.97 86.9466H216.721L203.913 46.0885H192.891ZM193.891 70.0401L194.866 66.2548C195.997 62.1657 197.087 57.3869 198.078 53.0761H198.332C199.422 57.3376 200.512 62.1657 201.643 66.2548L202.618 70.0401H193.891Z" fill="#E42320"/>
<path d="M243.855 60.5235C243.855 65.3434 244.6 71.0665 245.035 75.3855H244.781L240.749 66.4108L230.112 46.0885H220.663V86.9549H229.448V72.4459C229.448 67.6261 228.702 62.1575 228.268 57.6496H228.522L232.554 66.575L243.191 86.9466H252.64V46.0885H243.855V60.5235Z" fill="#E42320"/>
<path d="M290.705 46.0885H259.04V53.8397H270.259V86.9549H279.486V53.8397H290.705V46.0885Z" fill="#E42320"/>
<path d="M316.248 86.9466H326.008L313.2 46.0885H302.169L289.361 86.9466H298.785L301.301 77.2166H313.732L316.248 86.9466ZM303.161 70.0401L304.136 66.2548C305.267 62.1657 306.357 57.3869 307.348 53.0761H307.603C308.692 57.3376 309.782 62.1657 310.913 66.2548L311.888 70.0401H303.161Z" fill="#E42320"/>
<path d="M75.696 23.073C75.696 16.7176 79.4328 12.842 84.4235 12.842C86.8082 12.842 88.6848 14.008 89.8321 15.2725L88.4636 16.9065C87.431 15.798 86.128 15.0508 84.4645 15.0508C80.744 15.0508 78.2774 18.1053 78.2774 23.0155C78.2774 27.9668 80.6375 31.0788 84.3661 31.0788C86.2428 31.0788 87.6687 30.2576 88.9307 28.8618L90.2992 30.4383C88.7422 32.2447 86.8164 33.2875 84.2596 33.2875C79.3755 33.2711 75.696 29.4694 75.696 23.073ZM92.643 25.6266C92.643 20.7575 95.8226 17.9493 99.3955 17.9493C102.969 17.9493 106.148 20.7575 106.148 25.6266C106.148 30.4629 102.969 33.2711 99.3955 33.2711C95.8226 33.2711 92.643 30.4629 92.643 25.6266ZM103.6 25.6266C103.6 22.2847 101.903 20.0021 99.3955 20.0021C96.8879 20.0021 95.1916 22.2765 95.1916 25.6266C95.1916 28.9685 96.8879 31.2101 99.3955 31.2101C101.895 31.2101 103.6 28.9767 103.6 25.6266ZM109.959 18.3106H111.999L112.204 20.4126H112.286C113.671 19.0414 115.171 17.9493 117.17 17.9493C120.243 17.9493 121.62 19.9364 121.62 23.656V32.9098H119.153V23.9762C119.153 21.2583 118.334 20.0924 116.408 20.0924C114.917 20.0924 113.884 20.856 112.425 22.334V32.9098H109.959V18.3106ZM125.267 25.6266C125.267 20.7575 128.553 17.9493 132.282 17.9493C134.191 17.9493 135.519 18.7376 136.543 19.6654L135.281 21.2994C134.429 20.5276 133.535 20.0103 132.388 20.0103C129.749 20.0103 127.815 22.2847 127.815 25.6348C127.815 28.9767 129.643 31.2183 132.323 31.2183C133.658 31.2183 134.838 30.5697 135.74 29.765L136.805 31.4236C135.494 32.5896 133.839 33.2793 132.093 33.2793C128.225 33.2711 125.267 30.4629 125.267 25.6266ZM138.305 25.6266C138.305 20.8724 141.501 17.9493 144.852 17.9493C148.573 17.9493 150.671 20.6261 150.671 24.7973C150.671 25.3228 150.63 25.8401 150.556 26.2014H140.747C140.927 29.297 142.812 31.3004 145.59 31.3004C146.991 31.3004 148.139 30.8488 149.212 30.1345L150.097 31.7521C148.819 32.5896 147.27 33.2629 145.287 33.2629C141.394 33.2711 138.305 30.4219 138.305 25.6266ZM148.491 24.436C148.491 21.5129 147.18 19.9199 144.902 19.9199C142.853 19.9199 141.025 21.5704 140.722 24.436H148.491ZM150.605 39.0435L151.089 37.1549C151.474 37.2781 151.957 37.4095 152.474 37.4095C153.932 37.4095 154.277 36.3174 154.277 34.5438V18.3106H156.743V34.5602C156.743 37.5408 155.653 39.4294 152.744 39.4294C151.851 39.4294 151.113 39.2487 150.605 39.0435ZM153.818 13.7124C153.818 12.7435 154.563 12.1195 155.522 12.1195C156.481 12.1195 157.227 12.7435 157.227 13.7124C157.227 14.6485 156.481 15.3053 155.522 15.3053C154.563 15.3053 153.818 14.6402 153.818 13.7124ZM160.57 25.6266C160.57 20.7575 163.75 17.9493 167.323 17.9493C170.896 17.9493 174.075 20.7575 174.075 25.6266C174.075 30.4629 170.896 33.2711 167.323 33.2711C163.75 33.2711 160.57 30.4629 160.57 25.6266ZM171.527 25.6266C171.527 22.2847 169.83 20.0021 167.323 20.0021C164.815 20.0021 163.119 22.2765 163.119 25.6266C163.119 28.9685 164.815 31.2101 167.323 31.2101C169.822 31.2101 171.527 28.9767 171.527 25.6266ZM188.916 13.1951C194.964 13.1951 198.209 16.7176 198.209 22.9827C198.209 29.2477 194.964 32.9098 189.031 32.9098H183.999V13.1951H188.916ZM188.728 30.8488C193.325 30.8488 195.62 27.9586 195.62 22.9745C195.62 17.9904 193.325 15.2479 188.728 15.2479H186.499V30.8488H188.728ZM201.11 25.6266C201.11 20.8724 204.306 17.9493 207.658 17.9493C211.378 17.9493 213.476 20.6261 213.476 24.7973C213.476 25.3228 213.435 25.8401 213.362 26.2014H203.552C203.733 29.297 205.617 31.3004 208.395 31.3004C209.797 31.3004 210.944 30.8488 212.018 30.1345L212.903 31.7521C211.624 32.5896 210.075 33.2629 208.092 33.2629C204.2 33.2711 201.11 30.4219 201.11 25.6266ZM211.296 24.436C211.296 21.5129 209.985 19.9199 207.707 19.9199C205.658 19.9199 203.831 21.5704 203.528 24.436H211.296ZM217.049 29.9785V11.5118H219.516V30.1591C219.516 30.9145 219.844 31.2183 220.204 31.2183C220.344 31.2183 220.467 31.2183 220.745 31.1609L221.081 33.0494C220.729 33.1726 220.311 33.2793 219.663 33.2793C217.811 33.2711 217.049 32.0887 217.049 29.9785ZM224.244 13.7124C224.244 12.7435 224.99 12.1195 225.949 12.1195C226.908 12.1195 227.653 12.7435 227.653 13.7124C227.653 14.6485 226.908 15.3053 225.949 15.3053C224.982 15.3053 224.244 14.6402 224.244 13.7124ZM224.695 18.3106H227.162V32.9098H224.695V18.3106ZM234.349 31.399H234.267L234.037 32.9098H232.07V11.5118H234.537V17.3663L234.455 19.9856C235.791 18.8361 237.413 17.9493 239.036 17.9493C242.798 17.9493 244.822 20.8806 244.822 25.3803C244.822 30.3644 241.839 33.2711 238.512 33.2711C237.143 33.2711 235.635 32.5732 234.349 31.399ZM242.265 25.4131C242.265 22.1944 241.167 20.0267 238.421 20.0267C237.184 20.0267 235.906 20.7082 234.529 22.022V29.6747C235.807 30.7832 237.11 31.1937 238.077 31.1937C240.487 31.1937 242.265 29.0178 242.265 25.4131ZM247.551 25.6266C247.551 20.8724 250.747 17.9493 254.098 17.9493C257.819 17.9493 259.917 20.6261 259.917 24.7973C259.917 25.3228 259.876 25.8401 259.802 26.2014H249.993C250.173 29.297 252.058 31.3004 254.836 31.3004C256.237 31.3004 257.384 30.8488 258.458 30.1345L259.343 31.7521C258.065 32.5896 256.516 33.2629 254.533 33.2629C250.64 33.2711 247.551 30.4219 247.551 25.6266ZM257.737 24.436C257.737 21.5129 256.426 19.9199 254.147 19.9199C252.099 19.9199 250.271 21.5704 249.968 24.436H257.737ZM263.498 18.3106H265.538L265.743 20.971H265.825C266.841 19.1153 268.333 17.9493 269.972 17.9493C270.619 17.9493 271.07 18.0314 271.529 18.2531L271.07 20.4208C270.57 20.2648 270.242 20.1827 269.66 20.1827C268.431 20.1827 266.956 21.0695 265.973 23.541V32.918H263.506V18.3106H263.498ZM272.274 29.1163C272.274 25.9386 275.012 24.3457 281.223 23.6724C281.215 21.7921 280.592 19.9856 278.216 19.9856C276.528 19.9856 275.012 20.7821 273.872 21.5539L272.905 19.8625C274.249 18.9839 276.29 17.9575 278.625 17.9575C282.182 17.9575 283.69 20.3223 283.69 23.9598V32.918H281.649L281.445 31.1691H281.363C279.978 32.3268 278.355 33.2711 276.544 33.2711C274.102 33.2711 272.274 31.7521 272.274 29.1163ZM281.223 29.3462V25.29C276.339 25.8812 274.692 27.08 274.692 28.9439C274.692 30.6025 275.815 31.2758 277.249 31.2758C278.65 31.2758 279.814 30.5943 281.223 29.3462ZM288.279 18.3106H290.32L290.524 20.4126H290.606C291.991 19.0414 293.491 17.9493 295.491 17.9493C298.564 17.9493 299.94 19.9364 299.94 23.656V32.9098H297.474V23.9762C297.474 21.2583 296.654 20.0924 294.728 20.0924C293.237 20.0924 292.204 20.856 290.746 22.334V32.9098H288.279V18.3106ZM305.095 28.3937V20.3223H302.923V18.4502L305.201 18.3106L305.496 14.2133H307.553V18.3106H311.503V20.3223H307.553V28.443C307.553 30.2248 308.127 31.2594 309.807 31.2594C310.323 31.2594 310.995 31.0623 311.471 30.8653L311.946 32.7292C311.126 33.0083 310.151 33.2711 309.242 33.2711C306.152 33.2711 305.095 31.3005 305.095 28.3937ZM313.29 25.6266C313.29 20.8724 316.486 17.9493 319.837 17.9493C323.558 17.9493 325.656 20.6261 325.656 24.7973C325.656 25.3228 325.615 25.8401 325.541 26.2014H315.732C315.912 29.297 317.797 31.3004 320.575 31.3004C321.976 31.3004 323.124 30.8488 324.197 30.1345L325.082 31.7521C323.804 32.5896 322.255 33.2629 320.272 33.2629C316.387 33.2711 313.29 30.4219 313.29 25.6266ZM323.476 24.436C323.476 21.5129 322.165 19.9199 319.887 19.9199C317.838 19.9199 316.01 21.5704 315.707 24.436H323.476Z" fill="#F5900D"/>
</g>
<defs>
<linearGradient id="paint0_linear_80_491" x1="48.2309" y1="1.45475" x2="8.76862" y2="49.928" gradientUnits="userSpaceOnUse">
<stop stop-color="#E42320"/>
<stop offset="0.1176" stop-color="#E62D1E"/>
<stop offset="0.32" stop-color="#EA4919"/>
<stop offset="0.5827" stop-color="#F17612"/>
<stop offset="0.8925" stop-color="#FBB407"/>
<stop offset="1" stop-color="#FFCB03"/>
</linearGradient>
<linearGradient id="paint1_linear_80_491" x1="30.3122" y1="96.4815" x2="27.272" y2="46.4157" gradientUnits="userSpaceOnUse">
<stop stop-color="#E42320"/>
<stop offset="0.3313" stop-color="#EF6515"/>
<stop offset="0.6433" stop-color="#F79C0B"/>
<stop offset="0.8748" stop-color="#FDBE05"/>
<stop offset="1" stop-color="#FFCB03"/>
</linearGradient>
<clipPath id="clip0_80_491">
<rect width="326" height="94" fill="white"/>
</clipPath>
</defs>
</svg>
