<svg width="259" height="72" viewBox="0 0 259 72" fill="none" xmlns="http://www.w3.org/2000/svg">
<g clip-path="url(#clip0_323_1268)">
<path d="M24.3889 47.2453C24.9488 47.2453 25.4892 47.2013 26.0361 47.1635C15.1633 46.3459 6.59528 37.5597 6.59528 26.8176C6.59528 15.5346 16.0357 6.38994 27.6833 6.38994C35.1184 6.38994 41.6486 10.1321 45.3987 15.761L45.3011 15.3585C41.5054 7.1195 34.3176 0 24.3889 0C10.9184 0 0 10.5786 0 23.6226C0 36.6667 10.9184 47.2453 24.3889 47.2453Z" fill="white"/>
<path d="M21.0167 24.7484C20.4568 24.7484 19.9164 24.7924 19.3695 24.8302C30.2423 25.6478 38.8103 34.4339 38.8103 45.1761C38.8103 56.4591 29.3698 65.6038 17.7223 65.6038C10.2871 65.6038 3.75697 61.8616 0.00683594 56.2327L0.104496 56.6352C3.91322 64.8805 11.101 72 21.0232 72C34.4937 72 45.4121 61.4214 45.4121 48.3773C45.4121 35.3333 34.4872 24.7484 21.0167 24.7484Z" fill="white"/>
<path d="M60.4316 7.69181H63.2638L66.8056 17.2264C67.2483 18.4465 67.6715 19.7044 68.1207 20.9434H68.2314C68.6741 19.7044 69.0648 18.4465 69.5075 17.2264L73.0102 7.69181H75.8423V25.5346H73.6548V15.7107C73.6548 14.1572 73.8371 12.0126 73.9542 10.434H73.8436L72.3787 14.5031L68.902 23.7358H67.3459L63.8497 14.5031L62.3848 10.434H62.2742C62.3913 12.0126 62.5736 14.1572 62.5736 15.7107V25.5346H60.4447V7.69181H60.4316ZM80.4844 20.6981V12.3207H82.8022V20.4088C82.8022 22.8679 83.5705 23.9245 85.3869 23.9245C86.7867 23.9245 87.7568 23.2516 89.0524 21.6981V12.327H91.3702V25.5472H89.4561L89.2608 23.478H89.1826C87.9131 24.9182 86.5458 25.8742 84.6708 25.8742C81.7801 25.8616 80.4844 24.0692 80.4844 20.6981ZM95.9733 12.3207H97.8874L98.0827 14.2264H98.1608C99.463 12.9874 100.869 11.9937 102.751 11.9937C105.635 11.9937 106.931 13.7924 106.931 17.1635V25.5409H104.613V17.4528C104.613 14.9937 103.845 13.9371 102.028 13.9371C100.628 13.9371 99.6583 14.6289 98.291 15.9685V25.5409H95.9733V12.3207ZM110.941 8.15722C110.941 7.27672 111.638 6.71068 112.543 6.71068C113.441 6.71068 114.144 7.27672 114.144 8.15722C114.144 8.99999 113.448 9.60376 112.543 9.60376C111.638 9.60376 110.941 8.99999 110.941 8.15722ZM111.364 12.3207H113.682V25.5409H111.364V12.3207ZM117.27 18.9434C117.27 14.5346 120.356 11.9937 123.852 11.9937C125.649 11.9937 126.892 12.7107 127.856 13.5472L126.671 15.0251C125.877 14.327 125.03 13.8553 123.956 13.8553C121.475 13.8553 119.659 15.9182 119.659 18.9434C119.659 21.9748 121.378 24 123.891 24C125.141 24 126.248 23.4151 127.101 22.6855L128.103 24.1824C126.873 25.239 125.323 25.8616 123.683 25.8616C120.043 25.8616 117.27 23.3207 117.27 18.9434ZM130.688 8.15722C130.688 7.27672 131.385 6.71068 132.29 6.71068C133.188 6.71068 133.891 7.27672 133.891 8.15722C133.891 8.99999 133.195 9.60376 132.29 9.60376C131.391 9.60376 130.688 8.99999 130.688 8.15722ZM131.111 12.3207H133.429V25.5409H131.111V12.3207ZM138.039 12.3207H139.953L140.148 13.849H140.226C141.463 12.8553 143 12 144.588 12C148.124 12 150.012 14.6478 150.012 18.7358C150.012 23.239 147.212 25.8742 144.087 25.8742C142.83 25.8742 141.548 25.3145 140.291 24.3459L140.356 26.6541V31.1258H138.039V12.3207ZM147.616 18.7484C147.616 15.8302 146.587 13.8742 144.009 13.8742C142.85 13.8742 141.685 14.4906 140.35 15.6792V22.6101C141.587 23.6163 142.778 23.9874 143.683 23.9874C145.949 23.9811 147.616 22.0126 147.616 18.7484ZM152.408 22.1069C152.408 19.2264 154.979 17.7862 160.813 17.1761C160.806 15.478 160.22 13.8365 157.987 13.8365C156.405 13.8365 154.979 14.5597 153.905 15.2516L153 13.7233C154.257 12.9245 156.177 12 158.371 12C161.711 12 163.124 14.1446 163.124 17.434V25.5409H161.21L161.015 23.9623H160.936C159.634 25.0126 158.111 25.8679 156.412 25.8679C154.126 25.8616 152.408 24.4906 152.408 22.1069ZM160.813 22.3145V18.6415C156.229 19.1761 154.68 20.2579 154.68 21.9497C154.68 23.4528 155.734 24.0629 157.076 24.0629C158.397 24.0629 159.485 23.4402 160.813 22.3145ZM167.434 22.8805V6.16351H169.752V23.044C169.752 23.7296 170.058 24 170.396 24C170.527 24 170.644 24 170.904 23.9434L171.217 25.6541C170.891 25.7673 170.494 25.8616 169.882 25.8616C168.15 25.8616 167.434 24.7924 167.434 22.8805ZM174.186 8.15722C174.186 7.27672 174.882 6.71068 175.787 6.71068C176.686 6.71068 177.389 7.27672 177.389 8.15722C177.389 8.99999 176.692 9.60376 175.787 9.60376C174.889 9.60376 174.186 8.99999 174.186 8.15722ZM174.609 12.3207H176.927V25.5409H174.609V12.3207ZM180.56 18.9434C180.56 14.6541 183.359 11.9937 186.478 11.9937C188.066 11.9937 189.115 12.5723 190.312 13.522L190.215 11.2579V6.16351H192.533V25.5346H190.619L190.423 23.9748H190.345C189.284 25 187.825 25.8616 186.191 25.8616C182.773 25.8616 180.56 23.3522 180.56 18.9434ZM190.215 22.1761V15.2516C189.049 14.2453 187.995 13.8742 186.875 13.8742C184.687 13.8742 182.949 15.9119 182.949 18.9245C182.949 22.0943 184.31 23.9811 186.706 23.9811C187.969 23.9811 189.069 23.3836 190.215 22.1761ZM196.302 22.1069C196.302 19.2264 198.874 17.7862 204.708 17.1761C204.701 15.478 204.115 13.8365 201.882 13.8365C200.3 13.8365 198.874 14.5597 197.8 15.2516L196.895 13.717C198.151 12.9182 200.072 11.9937 202.266 11.9937C205.606 11.9937 207.019 14.1384 207.019 17.4277V25.5346H205.105L204.909 23.956H204.831C203.529 25.0063 202.006 25.8616 200.306 25.8616C198.021 25.8616 196.302 24.4906 196.302 22.1069ZM204.701 22.3145V18.6415C200.118 19.1761 198.568 20.2579 198.568 21.9497C198.568 23.4528 199.623 24.0629 200.964 24.0629C202.286 24.0629 203.379 23.4402 204.701 22.3145ZM210.352 18.9434C210.352 14.6541 213.152 11.9937 216.27 11.9937C217.859 11.9937 218.907 12.5723 220.105 13.522L220.008 11.2579V6.16351H222.325V25.5346H220.411L220.216 23.9748H220.138C219.077 25 217.618 25.8616 215.984 25.8616C212.566 25.8616 210.352 23.3522 210.352 18.9434ZM220.008 22.1761V15.2516C218.842 14.2453 217.787 13.8742 216.668 13.8742C214.48 13.8742 212.742 15.9119 212.742 18.9245C212.742 22.0943 214.096 23.9811 216.498 23.9811C217.768 23.9811 218.862 23.3836 220.008 22.1761ZM231.597 18.9434C231.597 14.6541 234.396 11.9937 237.515 11.9937C239.103 11.9937 240.152 12.5723 241.349 13.522L241.252 11.2579V6.16351H243.57V25.5346H241.655L241.46 23.9748H241.382C240.321 25 238.862 25.8616 237.228 25.8616C233.81 25.8616 231.597 23.3522 231.597 18.9434ZM241.252 22.1761V15.2516C240.086 14.2453 239.032 13.8742 237.912 13.8742C235.724 13.8742 233.986 15.9119 233.986 18.9245C233.986 22.0943 235.347 23.9811 237.743 23.9811C239.006 23.9811 240.106 23.3836 241.252 22.1761ZM247.17 18.9434C247.17 14.6415 250.171 11.9937 253.323 11.9937C256.812 11.9937 258.785 14.4151 258.785 18.195C258.785 18.6667 258.746 19.1384 258.674 19.4654H249.462C249.624 22.2641 251.402 24.0818 254.006 24.0818C255.321 24.0818 256.396 23.6729 257.411 23.0251L258.238 24.4906C257.04 25.2516 255.582 25.8616 253.72 25.8616C250.067 25.8616 247.17 23.2893 247.17 18.9434ZM256.734 17.8679C256.734 15.2201 255.504 13.7799 253.362 13.7799C251.441 13.7799 249.722 15.2704 249.436 17.8679H256.734Z" fill="white"/>
<path d="M60.5488 62.6541L64.7547 57.7987C67.0595 59.7358 70.0479 61.0692 72.7107 61.0692C75.7707 61.0692 77.2682 59.9057 77.2682 58.044C77.2682 56.0755 75.4257 55.4402 72.5935 54.3208L68.3811 52.5849C65.0216 51.2641 61.8379 48.5975 61.8379 44.0503C61.8379 38.8616 66.6363 34.7233 73.3813 34.7233C77.1119 34.7233 81.0118 36.1447 83.8049 38.8239L80.1068 43.283C77.9713 41.7044 75.94 40.8302 73.3813 40.8302C70.8552 40.8302 69.2471 41.8491 69.2471 43.6352C69.2471 45.5535 71.3695 46.2516 74.1951 47.3396L78.3229 48.956C82.2814 50.5031 84.7489 53.044 84.7489 57.4717C84.7489 62.6667 80.2631 67.1698 72.5414 67.1698C68.3356 67.1761 63.8497 65.6352 60.5488 62.6541Z" fill="white"/>
<path d="M96.3184 35.3019H105.082L115.258 66.5975H107.504L103.265 50.7484C102.367 47.6163 101.501 43.9182 100.635 40.6541H100.433C99.6518 43.956 98.7859 47.6163 97.8809 50.7484L93.623 66.5975H86.1357L96.3184 35.3019ZM92.8482 53.6478H108.441V59.1446H92.8482V53.6478Z" fill="white"/>
<path d="M116.749 51.1321C116.749 40.7484 123.852 34.7296 132.043 34.7296C136.229 34.7296 139.608 36.6352 141.789 38.7924L137.928 43.327C136.3 41.8679 134.556 40.8365 132.205 40.8365C127.765 40.8365 124.256 44.6226 124.256 50.8931C124.256 57.327 127.355 61.0692 132.088 61.0692C134.751 61.0692 136.841 59.805 138.429 58.1446L142.29 62.5912C139.601 65.6163 136.021 67.1824 131.828 67.1824C123.611 67.1761 116.749 61.673 116.749 51.1321Z" fill="white"/>
<path d="M153.247 35.3019H162.011L172.187 66.5975H164.439L160.201 50.7484C159.302 47.6163 158.436 43.9182 157.571 40.6541H157.369C156.587 43.956 155.721 47.6163 154.816 50.7484L150.559 66.5975H143.071L153.247 35.3019ZM149.784 53.6478H165.37V59.1446H149.784V53.6478Z" fill="white"/>
<path d="M175.312 35.3019H182.818L191.269 50.8679L194.472 57.7421H194.674C194.329 54.434 193.737 50.0503 193.737 46.3585V35.3019H200.716V66.6038H193.209L184.758 51L181.555 44.1635H181.353C181.698 47.6163 182.291 51.8113 182.291 55.4968V66.6038H175.312V35.3019Z" fill="white"/>
<path d="M214.715 41.239H205.802V35.3019H230.959V41.239H222.046V66.6038H214.715V41.239Z" fill="white"/>
<path d="M240.066 35.3019H248.83L259.006 66.5975H251.252L247.013 50.7484C246.115 47.6163 245.249 43.9182 244.383 40.6541H244.181C243.4 43.956 242.534 47.6163 241.629 50.7484L237.371 66.5975H229.884L240.066 35.3019ZM236.596 53.6478H252.189V59.1446H236.596V53.6478Z" fill="white"/>
</g>
<defs>
<clipPath id="clip0_323_1268">
<rect width="259" height="72" fill="white"/>
</clipPath>
</defs>
</svg>
