<svg xmlns="http://www.w3.org/2000/svg" width="94" height="49" viewBox="0 0 94 49" fill="none">
  <g clip-path="url(#clip0_27_993)">
    <path d="M12.8683 32.1867C12.8683 35.5231 9.11425 36.124 6.99755 36.2617C6.97888 37.1569 7.45202 37.908 8.65978 37.908C9.60607 37.908 10.515 37.4886 11.2309 37.0755L11.922 39.2037C11.5298 39.4792 9.96715 40.3743 7.75085 40.3743C4.86841 40.3743 3.67932 38.6279 3.67932 36.2805C3.67932 32.9003 5.9143 29.5828 9.74926 29.5828C11.6854 29.5828 12.8683 30.4779 12.8683 32.1867ZM9.27612 31.9301C8.11193 31.9301 7.45825 33.182 7.203 34.2524C8.3485 34.1961 9.96715 33.639 9.96715 32.5623C9.96715 32.1304 9.63097 31.9301 9.27612 31.9301Z" fill="white"/>
    <path d="M13.0239 40.0551L14.4496 31.9301L14.5679 29.8833H17.2947L17.332 30.9787C18.104 30.1274 19.1312 29.5891 20.4573 29.5891C22.0946 29.5891 23.0845 30.3465 23.1031 32.0553C23.1031 32.3746 23.0658 32.7689 23.0035 33.1508L21.7771 40.0676H18.4775L19.5048 34.1272C19.567 33.808 19.6604 33.3511 19.6604 32.9755C19.6604 32.5811 19.5048 32.143 18.9071 32.143C18.0604 32.143 17.5624 32.7814 17.4254 33.614L16.2986 40.0738H13.0239V40.0551Z" fill="white"/>
    <path d="M35.0687 26.6283L32.2236 42.8031C32.1613 43.1786 32.1302 43.5605 32.1302 43.8421C32.1613 44.5996 32.5037 44.8812 33.2259 44.8812C33.6928 44.8812 34.3839 44.6934 35.1683 44.3805L35.7286 47.8733C34.5084 48.5994 32.5037 49.0063 31.0968 49.0063C27.7785 49.0063 26.8073 47.4664 26.7762 45.0377C26.7762 44.3429 26.8696 43.5918 26.9941 42.8031L29.8392 26.6283H35.0687Z" fill="white"/>
    <path d="M36.9799 48.4993L39.8001 32.3871H45.0296L42.2094 48.4993H36.9799ZM43.6475 25.1823C45.1168 25.1823 46.0257 26.1901 46.0257 27.417C46.0257 29.082 44.5876 30.4091 42.7386 30.4091C41.2382 30.4091 40.3916 29.4952 40.3916 28.237C40.3916 26.597 41.7674 25.1823 43.6475 25.1823Z" fill="white"/>
    <path d="M45.4592 48.4992L47.7128 35.6295L47.8996 32.3871H52.2201L52.2824 34.121C53.5026 32.7689 55.1275 31.9176 57.2255 31.9176C59.8216 31.9176 61.3904 33.1132 61.4216 35.8173C61.4216 36.3181 61.3593 36.9503 61.2659 37.5512L59.3235 48.5055H54.094L55.7189 39.0973C55.8123 38.5966 55.9679 37.8705 55.9679 37.2695C55.9679 36.6373 55.7189 35.9488 54.7789 35.9488C53.4341 35.9488 52.6497 36.9566 52.4318 38.2773L50.6451 48.5055H45.4592V48.4992Z" fill="white"/>
    <path d="M77.3466 36.0364C77.3466 41.3258 71.4011 42.2647 68.0518 42.4901C68.0207 43.9047 68.7739 45.1003 70.679 45.1003C72.1793 45.1003 73.6237 44.4368 74.7505 43.7795L75.8462 47.1472C75.2174 47.5854 72.7459 49.0063 69.2409 49.0063C64.6713 49.0063 62.7912 46.2395 62.7912 42.5214C62.7912 37.1694 66.3273 31.9176 72.3972 31.9176C75.4727 31.9114 77.3466 33.3323 77.3466 36.0364ZM71.6502 35.6296C69.8012 35.6296 68.7677 37.6138 68.3631 39.3102C70.1809 39.2163 72.7459 38.3337 72.7459 36.6373C72.7459 35.9425 72.2167 35.6296 71.6502 35.6296Z" fill="white"/>
    <path d="M91.902 45.1003L91.6841 48.4992H87.2702V47.022L87.1145 46.9907C86.0188 48.2801 84.6118 48.975 82.7317 48.975C79.3824 48.975 77.882 46.4899 77.882 43.091C77.882 36.6373 81.4492 31.9176 87.9923 31.9176C89.3059 31.9176 91.653 32.2306 94 33.1758L91.902 45.1003ZM88.397 35.8486C88.0546 35.6921 87.5503 35.5982 86.99 35.5982C84.1449 35.5982 83.1115 39.9111 83.1115 42.49C83.1115 43.9986 83.4539 45.2255 84.9605 45.2255C86.025 45.2255 86.7783 44.5307 87.0896 43.429L88.397 35.8486Z" fill="white"/>
    <path d="M78.5108 7.69304C78.0439 7.82449 77.6454 8.11869 77.3777 8.51931L74.3957 4.35669C74.0782 3.91226 73.5988 3.60554 73.0634 3.51164C73.0634 3.51164 72.2229 3.38645 71.4198 3.86844C70.4673 4.55699 70.2494 5.89654 70.9342 6.86052L71.3451 7.4364L72.1794 8.60068L74.7505 12.1874C73.6299 12.5004 72.97 13.6647 73.2813 14.7977C73.3498 15.048 73.4618 15.2859 73.6175 15.4925L76.5808 19.6301L77.7575 21.2701L78.187 21.8647C78.2804 21.9962 78.4174 22.0901 78.573 22.1339L82.713 23.2982L84.643 25.9961C84.8733 26.3153 85.3153 26.3904 85.6328 26.1588L93.7074 20.3124C94.0249 20.0808 94.0934 19.6363 93.8693 19.3171L91.8709 16.5316L90.9868 12.9323C90.9619 12.8447 90.9246 12.7633 90.8748 12.6882L86.3114 6.30967C85.6079 5.37074 84.3006 5.15791 83.3356 5.82143C83.0368 6.04051 82.8064 6.32845 82.657 6.66647C81.6298 6.23456 80.4469 6.68525 79.9613 7.69304M85.3714 24.5814L83.7091 22.2591C83.6157 22.1276 83.4788 22.0337 83.3231 21.9899L79.1831 20.8256L74.763 14.6474C74.5451 14.3219 74.626 13.8775 74.956 13.6584C75.2672 13.4456 75.6844 13.5145 75.9147 13.8149L78.4112 17.3015L79.5629 16.469L72.0922 6.02799C71.8619 5.70876 71.9366 5.26432 72.2541 5.03272C72.5778 4.80738 73.0136 4.88249 73.2502 5.19547L78.6477 12.732L79.0648 13.3141L80.2166 12.4816L78.5543 10.1593C78.3365 9.83382 78.4236 9.38939 78.7473 9.1703C79.0586 8.96374 79.482 9.03259 79.7061 9.33305L80.1232 9.91519L81.3683 11.6554L82.52 10.8228L82.1029 10.2407L81.2749 9.08267C81.0446 8.76343 81.1193 8.31274 81.4368 8.0874C81.7543 7.85579 82.2025 7.93091 82.4267 8.25015L82.8375 8.82603L83.6655 9.98405L84.8173 9.15153L83.9955 7.9935C83.7652 7.67426 83.8399 7.22983 84.1574 6.99823C84.4749 6.77914 84.9169 6.848 85.1472 7.16098L89.6359 13.4268L90.5261 17.0261C90.551 17.1137 90.5884 17.1951 90.6382 17.2702L92.3004 19.5925L85.3714 24.5814Z" fill="white"/>
    <path d="M19.0627 2.39117H24.6346L22.0385 23.317H16.9709L18.2845 12.4002H18.16L13.2792 21.2137H9.49401L7.67614 12.563H7.58275L5.06762 23.317H0L4.84972 2.39117H10.4216L12.5508 14.1592H12.6753L19.0627 2.39117Z" fill="white"/>
    <path d="M41.3129 7.20477L39.0593 20.2623L38.8414 23.3169H34.4586V21.7771L34.2718 21.7458C32.8648 23.2856 31.3271 23.7301 29.889 23.7301C26.882 23.7301 25.4128 22.378 25.4128 19.6426C25.4128 19.1731 25.4751 18.5409 25.5685 17.9775L27.4486 7.21729H32.6781L30.8851 17.339C30.8228 17.7772 30.7606 18.1903 30.7606 18.5346C30.7606 19.2607 31.0096 19.7615 32.0119 19.7615C33.1076 19.7615 34.0788 18.8476 34.2967 17.5581L36.0835 7.20477H41.3129Z" fill="white"/>
    <path d="M41.7798 23.317L44.0335 10.4473L44.2203 7.20479H48.5408L48.6031 8.93244C49.8233 7.58037 51.4482 6.72906 53.5462 6.72906C56.1423 6.72906 57.7111 7.92464 57.7422 10.6288C57.7422 11.1295 57.68 11.7618 57.5866 12.3627L55.6442 23.3107H50.4147L52.0396 13.9025C52.133 13.4018 52.2886 12.6757 52.2886 12.0747C52.2886 11.4425 52.0396 10.754 51.0995 10.754C49.7548 10.754 48.9704 11.7618 48.7525 13.0825L46.9658 23.3107H41.7798V23.317Z" fill="white"/>
    <path d="M58.8006 23.3169L61.6145 7.20478H66.844L64.0301 23.3169H58.8006ZM65.4682 0C66.9374 0 67.8463 1.00779 67.8463 2.23467C67.8463 3.89972 66.4082 5.22675 64.5592 5.22675C63.0589 5.22675 62.2122 4.31285 62.2122 3.05468C62.2122 1.41467 63.588 0 65.4682 0Z" fill="white"/>
  </g>
  <defs>
    <clipPath id="clip0_27_993">
      <rect width="94" height="49" fill="white"/>
    </clipPath>
  </defs>
</svg>