<svg xmlns="http://www.w3.org/2000/svg" width="92" height="55" viewBox="0 0 92 55" fill="none">
  <g clip-path="url(#clip0_78_254)">
    <path d="M86.6947 55H5.30533C2.392 55 0 52.6774 0 49.8593V43.0462C0 40.2281 2.392 37.9364 5.30533 37.9364H86.664C89.608 37.9364 91.9693 40.2281 91.9693 43.0462V49.8902C92 52.6774 89.608 55 86.6947 55ZM5.30533 41.7146C4.47733 41.7146 3.74133 42.3339 3.74133 43.0462V49.8902C3.74133 50.6025 4.47733 51.2219 5.30533 51.2219H86.664C87.492 51.2219 88.228 50.6025 88.228 49.8902V43.0462C88.228 42.3339 87.492 41.7146 86.664 41.7146H5.30533Z" fill="white"/>
    <path d="M49.2507 36.0163H42.8413C40.9093 36.0163 39.4373 34.344 39.4373 32.1453V2.19876C39.4373 1.23874 40.1427 0.433559 41.0933 0.309685C42.7493 0.0929054 44.4667 0 46.1227 0C47.6867 0 49.312 0.0929054 50.9067 0.278716C51.8573 0.40259 52.5627 1.20777 52.5627 2.16779V32.1453C52.5627 34.3131 51.1213 36.0163 49.2507 36.0163ZM43.1787 32.2382H48.7907C48.7907 32.2072 48.7907 32.1762 48.7907 32.1453V3.90203C46.8893 3.77815 45.0493 3.77815 43.148 3.933V32.1762C43.1787 32.1762 43.1787 32.2072 43.1787 32.2382Z" fill="white"/>
    <path d="M85.6213 41.7146H6.74666C6.22533 41.7146 5.73466 41.4978 5.39733 41.1262C5.02933 40.7546 4.84533 40.2281 4.87599 39.7326C5.48933 27.2523 11.5307 15.8249 21.4053 8.36154C21.712 8.1138 21.988 7.92799 22.2333 7.74218C27.8147 3.74724 34.316 1.17686 41.0627 0.309744C41.584 0.247807 42.136 0.402649 42.5347 0.774271C42.9333 1.14589 43.1787 1.64139 43.1787 2.19882V32.1453C43.1787 32.1763 43.1787 32.2073 43.1787 32.2382H48.7907C48.7907 32.2073 48.7907 32.1763 48.7907 32.1453V2.16785C48.7907 1.64139 49.0053 1.11492 49.4347 0.743302C49.8333 0.37168 50.3547 0.216838 50.9067 0.278775C57.9907 1.11492 64.7987 3.80918 70.564 8.05186C80.684 15.5462 86.848 27.0975 87.492 39.7016C87.5227 40.2281 87.3387 40.7236 86.9707 41.0952C86.6333 41.4978 86.1427 41.7146 85.6213 41.7146ZM8.77066 37.9364H83.5973C82.6467 28.522 78.292 19.9128 71.3613 13.5952V34.6538C71.3613 35.7067 70.5333 36.5429 69.4907 36.5429C68.448 36.5429 67.62 35.7067 67.62 34.6538V10.5603C63.112 7.40152 57.9907 5.2647 52.5933 4.33564V32.1453C52.5933 34.3131 51.1213 36.0164 49.2813 36.0164H42.872C40.94 36.0164 39.468 34.3441 39.468 32.1453V4.39758C34.04 5.41954 28.888 7.6183 24.4107 10.839V34.6228C24.4107 35.6757 23.5827 36.5119 22.54 36.5119C21.4973 36.5119 20.6693 35.6757 20.6693 34.6228V13.9049C13.9227 20.1605 9.72133 28.6769 8.77066 37.9364Z" fill="white"/>
  </g>
  <defs>
    <clipPath id="clip0_78_254">
      <rect width="92" height="55" fill="white"/>
    </clipPath>
  </defs>
</svg>