<svg xmlns="http://www.w3.org/2000/svg" width="83" height="100" viewBox="0 0 83 100" fill="none">
  <g clip-path="url(#clip0_78_130)">
    <path d="M24.2914 100H2.01976C1.46643 100 0.940765 99.7768 0.553431 99.3584C0.166098 98.9679 -0.0275686 98.41 9.8103e-05 97.8522L4.03943 1.95258C4.09476 0.864714 4.9801 0 6.0591 0H20.2244C21.3034 0 22.1888 0.83682 22.2718 1.89679L26.3111 65.1604C26.3111 65.1883 26.3111 65.2441 26.3111 65.2999V97.9637C26.3111 99.1074 25.3981 100 24.2914 100ZM4.1501 95.9275H22.2718V65.3835L18.3431 4.07252H8.02343L4.1501 95.9275Z" fill="white"/>
    <path d="M80.9803 100H24.2913C23.1847 100 22.2717 99.0795 22.2717 97.9637V67.364C22.2717 66.583 22.7143 65.8856 23.3783 65.5509L35.524 59.4142C36.1327 59.1074 36.8797 59.1353 37.4607 59.4979L46.7013 65.0767L59.926 59.3584C60.5347 59.1074 61.1987 59.1353 61.752 59.4979L70.8267 64.993L79.9013 59.4979C80.5377 59.1074 81.3123 59.1074 81.9487 59.47C82.585 59.8326 82.9723 60.5021 82.9723 61.2552V97.9916C83 99.1074 82.087 100 80.9803 100ZM26.311 95.9275H78.933V64.8256L71.878 69.0934C71.2417 69.4839 70.4393 69.4839 69.803 69.0934L60.5623 63.5146L47.3377 69.2329C46.729 69.4839 46.065 69.456 45.5117 69.0934L36.354 63.5425L26.311 68.6192V95.9275Z" fill="white"/>
    <path d="M40.4763 77.5453H32.37C31.2633 77.5453 30.3503 78.4658 30.3503 79.5816V85.7182C30.3503 86.834 31.2633 87.7545 32.37 87.7545H40.4763C41.583 87.7545 42.496 86.834 42.496 85.7182V79.5816C42.5237 78.4658 41.6107 77.5453 40.4763 77.5453ZM39.84 83.682C39.84 84.463 39.2313 85.0767 38.4567 85.0767H34.4173C33.6427 85.0767 33.034 84.463 33.034 83.682V81.6457C33.034 80.8647 33.6427 80.251 34.4173 80.251H38.4567C39.2313 80.251 39.84 80.8647 39.84 81.6457V83.682Z" fill="white"/>
    <path d="M54.0054 28.5634H39.093C34.777 28.5634 31.2634 25.0209 31.2634 20.6694C31.2634 16.5969 34.362 13.2217 38.3184 12.8312C39.5357 8.89816 43.1324 6.10876 47.3654 6.10876C51.7367 6.10876 55.444 9.06553 56.523 13.2217C59.6217 14.3096 61.8074 17.2664 61.8074 20.6694C61.835 25.0488 58.3214 28.5634 54.0054 28.5634ZM39.1207 16.8759C37.0457 16.8759 35.358 18.5774 35.358 20.6694C35.358 22.7615 37.0457 24.463 39.1207 24.463H54.033C56.108 24.463 57.7957 22.7615 57.7957 20.6694C57.7957 18.7726 56.3847 17.1548 54.531 16.9037C53.618 16.7643 52.8987 16.039 52.788 15.0906C52.5114 12.3012 50.1874 10.1813 47.393 10.1813C44.6264 10.1813 42.3024 12.2733 41.998 15.0348C41.8874 16.0669 41.0297 16.848 39.9784 16.848H39.1207V16.8759Z" fill="white"/>
    <path d="M71.3247 55.1185H56.4124C52.0964 55.1185 48.5827 51.576 48.5827 47.2245C48.5827 43.1241 51.6814 39.7768 55.6377 39.3863C56.855 35.4532 60.4517 32.6638 64.6847 32.6638C69.056 32.6638 72.7634 35.6206 73.8424 39.7768C76.941 40.8647 79.1267 43.8214 79.1267 47.2245C79.1267 51.576 75.613 55.1185 71.3247 55.1185ZM56.4124 43.403C54.3374 43.403 52.6497 45.1045 52.6497 47.1966C52.6497 49.2886 54.3374 50.9902 56.4124 50.9902H71.3247C73.3997 50.9902 75.0874 49.2886 75.0874 47.1966C75.0874 45.2998 73.6764 43.6819 71.8227 43.4309C70.9097 43.2914 70.1904 42.5662 70.0797 41.6178C69.803 38.8284 67.479 36.7084 64.6847 36.7084C61.918 36.7084 59.594 38.8005 59.2897 41.562C59.179 42.5941 58.3214 43.3751 57.27 43.3751H56.4124V43.403Z" fill="white"/>
    <path d="M72.874 77.5453H64.7677C63.661 77.5453 62.748 78.4658 62.748 79.5816V85.7182C62.748 86.834 63.661 87.7545 64.7677 87.7545H72.874C73.9807 87.7545 74.8937 86.834 74.8937 85.7182V79.5816C74.8937 78.4658 74.0083 77.5453 72.874 77.5453ZM72.2377 83.682C72.2377 84.463 71.629 85.0767 70.8544 85.0767H66.815C66.0403 85.0767 65.4317 84.463 65.4317 83.682V81.6457C65.4317 80.8647 66.0403 80.251 66.815 80.251H70.8544C71.629 80.251 72.2377 80.8647 72.2377 81.6457V83.682Z" fill="white"/>
    <path d="M56.689 77.5453H48.5827C47.476 77.5453 46.563 78.4658 46.563 79.5816V85.7182C46.563 86.834 47.476 87.7545 48.5827 87.7545H56.689C57.7957 87.7545 58.7087 86.834 58.7087 85.7182V79.5816C58.7087 78.4658 57.7957 77.5453 56.689 77.5453ZM56.0527 83.682C56.0527 84.463 55.444 85.0767 54.6694 85.0767H50.63C49.8554 85.0767 49.2467 84.463 49.2467 83.682V81.6457C49.2467 80.8647 49.8554 80.251 50.63 80.251H54.6694C55.444 80.251 56.0527 80.8647 56.0527 81.6457V83.682Z" fill="white"/>
  </g>
  <defs>
    <clipPath id="clip0_78_130">
      <rect width="83" height="100" fill="white"/>
    </clipPath>
  </defs>
</svg>