<svg xmlns="http://www.w3.org/2000/svg" width="16" height="17" viewBox="0 0 16 17" fill="none">
<mask id="mask0_341_627" style="mask-type:alpha" maskUnits="userSpaceOnUse" x="0" y="0" width="16" height="17">
<rect x="0.0723686" y="0.486816" width="15.5263" height="15.5263" fill="#D9D9D9"/>
</mask>
<g mask="url(#mask0_341_627)">
<path d="M13.0359 8.14047C12.8617 8.14047 12.7087 8.07786 12.5768 7.95262C12.4449 7.82739 12.3595 7.66358 12.3205 7.46121C12.1696 6.46012 11.7325 5.59796 11.0092 4.87472C10.286 4.15149 9.42384 3.7144 8.42274 3.56345C8.22037 3.52447 8.05657 3.43531 7.93134 3.29597C7.8061 3.15663 7.74348 2.99656 7.74348 2.81576C7.74348 2.61339 7.81046 2.45228 7.9444 2.33244C8.07835 2.21259 8.2378 2.16138 8.42274 2.17879C9.8153 2.34301 11.0028 2.91633 11.9852 3.89875C12.9676 4.88117 13.5409 6.06865 13.7052 7.46121C13.7226 7.64616 13.666 7.80561 13.5353 7.93955C13.4047 8.0735 13.2382 8.14047 13.0359 8.14047ZM10.2951 8.14047C10.145 8.14047 10.0133 8.08822 9.90012 7.98372C9.78691 7.87922 9.69879 7.73449 9.63575 7.54954C9.53705 7.24265 9.37491 6.97434 9.14931 6.74459C8.92371 6.51486 8.65208 6.35271 8.33442 6.25815C8.16025 6.19512 8.01821 6.1016 7.90832 5.97761C7.79843 5.85363 7.74348 5.71864 7.74348 5.57266C7.74348 5.34625 7.82082 5.16171 7.9755 5.01905C8.13019 4.87641 8.31078 4.82789 8.51729 4.8735C9.13768 5.01615 9.67429 5.31391 10.1271 5.76676C10.58 6.21961 10.8798 6.75291 11.0266 7.36667C11.0722 7.57318 11.021 7.75377 10.873 7.90845C10.7249 8.06313 10.5323 8.14047 10.2951 8.14047ZM13.1665 14.2664C11.7855 14.2664 10.4152 13.9641 9.05538 13.3595C7.69558 12.7548 6.45087 11.8877 5.32123 10.758C4.19575 9.63919 3.33069 8.39822 2.72606 7.03511C2.12143 5.672 1.81911 4.29997 1.81911 2.91904C1.81911 2.7034 1.87841 2.53524 1.99702 2.41456C2.11562 2.29388 2.28274 2.23354 2.49839 2.23354H5.22293C5.38632 2.23354 5.53313 2.28683 5.66335 2.39341C5.79356 2.49999 5.88106 2.63166 5.92584 2.78841L6.36127 5.17705C6.38699 5.33215 6.38159 5.47315 6.3451 5.60005C6.30861 5.72694 6.25387 5.82273 6.18087 5.88743L4.54117 7.50351C4.77091 7.91157 5.03217 8.30118 5.32495 8.67233C5.61773 9.0435 5.9441 9.41321 6.30405 9.78146C6.64826 10.1149 7.00408 10.4257 7.3715 10.7139C7.73892 11.0021 8.1221 11.2611 8.52104 11.4908L10.2317 9.83247C10.3221 9.73792 10.415 9.67758 10.5104 9.65146C10.6057 9.62533 10.7094 9.62305 10.8214 9.64462L13.2648 10.1721C13.4281 10.2152 13.5669 10.2986 13.6809 10.4222C13.795 10.5457 13.852 10.6859 13.852 10.8427V13.5871C13.852 13.8028 13.7916 13.9699 13.6709 14.0885C13.5503 14.2071 13.3821 14.2664 13.1665 14.2664Z" fill="#019939"/>
</g>
</svg>